<?xml version="1.0" standalone="no"?>
<!DOCTYPE svg PUBLIC "-//W3C//DTD SVG 1.1//EN" "http://www.w3.org/Graphics/SVG/1.1/DTD/svg11.dtd" >
<svg xmlns="http://www.w3.org/2000/svg">
<metadata>
Generated by SVGconv.
Copyright   : Copyright (c) 2013 by Gayane Bagdasaryan, Dmitry Rastvortsev. All rights reserved.
Designer    : Gayane Bagdasaryan, Dmitry Rastvortsev
Foundry     : Gayane Bagdasaryan, Dmitry Rastvortsev
Foundry URL : http://www.brownfox.org
</metadata>
<defs>
<font id="BrutalType-ExtraLight" horiz-adv-x="538" >
<font-face units-per-em="1000" ascent="955" descent="277" />
<missing-glyph horiz-adv-x="500" />
<glyph unicode="&#13;" horiz-adv-x="265" />
<glyph unicode="&#32;" horiz-adv-x="265" />
<glyph unicode="&#33;" horiz-adv-x="239" d="M104 123h31v-123h-31zM105 700h30v-480l-30 0z" />
<glyph unicode="&#34;" horiz-adv-x="299" d="M50 599v106h32v-106l-6 -108h-20zM217 599v106h32v-106l-6 -108l-20 0z" />
<glyph unicode="&#35;" horiz-adv-x="604" d="M106 12l37 192h-119v28h125l45 236h-129v28h134l40 204h26v-12l-36 -192h201l40 204h26v-12l-36 -192h120v-28h-126l-45 -236h130v-28h-136l-39 -204h-27v12l36 192h-201l-39 -204h-27zM380 232l45 236h-202l-45 -236z" />
<glyph unicode="&#36;" horiz-adv-x="609" d="M83 227q0 -58 20.5 -99q20.5 -41 53.5 -66.5q33 -25.5 75 -37q42 -11.5 84 -11.5q49 0 85.5 12q36.5 12 60.5 32.5q24 20.5 36 48q12 27.5 12 59.5q0 58 -36.5 91.5q-36.5 33.5 -108.5 61.5l-112 43q-48 18 -81 35q-33 17 -54 37q-21 20 -30.5 46q-9.5 26 -9.5 62q0 37 14.5 68.5q14.5 31.5 41.5 54.5q27 23 66.5 36.5q39.5 13.5 90.5 14.5l0 93h30v-94q44 -3 83.5 -18q39.5 -15 69 -44q29.5 -29 47 -72q17.5 -43 17.5 -101l-30 0q0 57 -17.5 97q-17.5 40 -47 64.5q-29.5 24.5 -67.5 35.5q-38 11 -79 11q-44 0 -79 -11q-35 -11 -59.5 -30q-24.5 -19 -37.5 -46q-13 -27 -13 -58q0 -52 25.5 -81q25.5 -29 83.5 -52l161 -63q38 -15 68 -31q30 -16 51 -37q21 -21 32.5 -48q11.5 -27 11.5 -64q0 -37 -13 -69.5q-13 -32.5 -40 -57q-27 -24.5 -68.5 -39q-41.5 -14.5 -98.5 -15.5l0 -96h-30v96q-45 3 -88 18.5q-43 15.5 -76.5 44.5q-33.5 29 -53.5 73.5q-20 44.5 -20 105.5z" />
<glyph unicode="&#37;" horiz-adv-x="751" d="M190 374q59 0 87.5 32.5q28.5 32.5 28.5 78.5v94q0 47 -28.5 79q-28.5 32 -87.5 32q-56 0 -85.5 -31.5q-29.5 -31.5 -29.5 -79.5v-94q0 -48 29.5 -79.5q29.5 -31.5 85.5 -31.5zt0 0zM190 349q-70 0 -106 38.5q-36 38.5 -36 99.5v90q0 61 36 99.5q36 38.5 106 38.5q72 0 107.5 -38.5q35.5 -38.5 35.5 -99.5v-90q0 -61 -35.5 -99.5q-35.5 -38.5 -107.5 -38.5zt0 0zM167 12l389 688h26v-12l-389 -688h-26zM560 10q59 0 87.5 32.5q28.5 32.5 28.5 77.5v95q0 47 -28.5 79q-28.5 32 -87.5 32q-56 0 -85.5 -31.5q-29.5 -31.5 -29.5 -79.5v-95q0 -48 29.5 -79q29.5 -31 85.5 -31zt0 0zM560 -15q-70 0 -106 38.5q-36 38.5 -36 99.5v90q0 61 36 99.5q36 38.5 106 38.5q72 0 107.5 -38.5q35.5 -38.5 35.5 -99.5v-90q0 -61 -35.5 -99.5t-107.5 -38.5z" />
<glyph unicode="&#38;" horiz-adv-x="587" d="M575 0h-26l-82 93q-38 -49 -92.5 -77q-54.5 -28 -124.5 -28q-48 0 -87.5 14q-39.5 14 -67 39q-27.5 25 -43 60.5q-15.5 35.5 -15.5 77.5q0 62 31.5 104.5q31.5 42.5 85.5 86.5l35 29l-24 28q-15 18 -28.5 34q-13.5 16 -23.5 32.5q-10 16.5 -15.5 35.5q-5.5 19 -5.5 42q0 30 10.5 55q10.5 25 29 43q18.5 18 43.5 28q25 10 55 10q60 0 98.5 -37q38.5 -37 38.5 -97q0 -40 -21.5 -71q-21.5 -31 -52.5 -56l-62 -50l233 -258q46 78 46 183l29 0q0 -118 -54 -204l90 -103zM250 16q64 0 114 26q50 26 83 71l-238 266l-36 -29q-25 -20 -44.5 -38.5q-19.5 -18.5 -33 -38.5q-13.5 -20 -21 -42q-7.5 -22 -7.5 -50q0 -37 13.5 -67.5q13.5 -30.5 38 -52q24.5 -21.5 58 -33.5q33.5 -12 73.5 -12zt0 0zM122 571q0 -16 2.5 -29q2.5 -13 9.5 -27q7 -14 19.5 -30.5q12.5 -16.5 31.5 -37.5l28 -31l56 47q31 25 50 51q19 26 19 59q0 46 -30 76q-30 30 -78 30q-47 0 -77.5 -29.5t-30.5 -78.5z" />
<glyph unicode="&#39;" horiz-adv-x="132" d="M50 599v106h32v-106l-6 -108l-20 0z" />
<glyph unicode="&#40;" horiz-adv-x="292" d="M268 -160q-78 0 -124 40.5q-46 40.5 -46 119.5v586q0 79 46 119.5q46 40.5 124 40.5l0 -28q-64 0 -102 -34q-38 -34 -38 -98v-586q0 -64 38 -98q38 -34 102 -34l0 -28z" />
<glyph unicode="&#41;" horiz-adv-x="292" d="M24 -160q78 0 124 40.5q46 40.5 46 119.5v586q0 79 -46 119.5q-46 40.5 -124 40.5l0 -28q64 0 102 -34q38 -34 38 -98v-586q0 -64 -38 -98q-38 -34 -102 -34l0 -28z" />
<glyph unicode="&#42;" horiz-adv-x="399" d="M212 497v-164h-25v164l-142 -82l-13 22l142 82l-142 82l13 22l142 -83v165h25v-165l142 83l13 -22l-142 -82l142 -82l-13 -22z" />
<glyph unicode="&#43;" horiz-adv-x="510" d="M241 300h-189v26h189v190h28v-190h189v-26h-189v-191l-28 0z" />
<glyph unicode="&#44;" horiz-adv-x="190" d="M28 -88l78 214h32v-15l-85 -199z" />
<glyph unicode="&#45;" horiz-adv-x="432" d="M68 328h297v-30l-297 0z" />
<glyph unicode="&#46;" horiz-adv-x="191" d="M80 126h31v-126l-31 0z" />
<glyph unicode="&#47;" horiz-adv-x="451" d="M48 -88l328 834h27v-12l-328 -834l-27 0z" />
<glyph unicode="&#48;" horiz-adv-x="591" d="M295 13q88 0 138 49.5q50 49.5 50 135.5v304q0 87 -50 136q-50 49 -138 49q-88 0 -137.5 -49q-49.5 -49 -49.5 -136v-304q0 -86 49.5 -135.5q49.5 -49.5 137.5 -49.5zt0 0zM295 -15q-99 0 -158 56.5q-59 56.5 -59 158.5v300q0 102 59 158.5q59 56.5 158 56.5q49 0 89.5 -14.5q40.5 -14.5 69 -42q28.5 -27.5 44 -67.5q15.5 -40 15.5 -91v-300q0 -51 -15.5 -91q-15.5 -40 -44 -67.5q-28.5 -27.5 -69 -42t-89.5 -14.5z" />
<glyph unicode="&#49;" horiz-adv-x="242" d="M34 672v19l80 9h30v-700h-30l0 672z" />
<glyph unicode="&#50;" horiz-adv-x="558" d="M66 26l212 216q25 25 53 55q28 30 52 64q24 34 40 71.5q16 37.5 16 78.5q0 84 -47.5 130q-47.5 46 -124.5 46q-39 0 -72 -12.5q-33 -12.5 -57 -36.5q-24 -24 -37.5 -59q-13.5 -35 -13.5 -81l-29 0q0 52 16 92.5q16 40.5 44.5 68.5q28.5 28 66.5 42q38 14 82 14q45 0 82 -14q37 -14 64 -40.5q27 -26.5 41.5 -64.5q14.5 -38 14.5 -85q0 -46 -18 -88q-18 -42 -43.5 -78q-25.5 -36 -55 -66.5q-29.5 -30.5 -51.5 -53.5l-193 -197h381v-28l-423 0z" />
<glyph unicode="&#51;" horiz-adv-x="562" d="M282 -15q-50 0 -90.5 14q-40.5 14 -69.5 41q-29 27 -46 65.5q-17 38.5 -18 86.5l29 0q3 -83 55.5 -131q52.5 -48 140.5 -48q87 0 134.5 47.5q47.5 47.5 47.5 132.5q0 70 -44 114.5q-44 44.5 -120 44.5h-66v30h67q68 0 107 40q39 40 39 107q0 31 -11 59.5q-11 28.5 -32 50.5q-21 22 -52.5 35q-31.5 13 -73.5 13q-81 0 -129.5 -49q-48.5 -49 -49.5 -140l-29 0q1 104 57.5 160.5q56.5 56.5 150.5 56.5q48 0 84.5 -15q36.5 -15 62 -40q25.5 -25 38.5 -59q13 -34 13 -71q0 -69 -34 -109q-34 -40 -84 -53q28 -6 53 -20.5q25 -14.5 43.5 -36.5q18.5 -22 29 -52q10.5 -30 10.5 -66q0 -99 -56 -153.5t-157 -54.5z" />
<glyph unicode="&#52;" horiz-adv-x="537" d="M380 174h-342v25l293 501h27v-12l-285 -486h307v209h30v-209h99v-28h-99v-174l-30 0z" />
<glyph unicode="&#53;" horiz-adv-x="572" d="M290 -15q-90 0 -148.5 49.5q-58.5 49.5 -70.5 142.5l30 0q11 -78 62 -121q51 -43 128 -43q45 0 79.5 15q34.5 15 57.5 42q23 27 35 65q12 38 12 83q0 102 -50 151.5q-50 49.5 -131 49.5q-51 0 -91.5 -21.5q-40.5 -21.5 -64.5 -50.5l-29 0l29 353h326v-28h-301l-24 -288q28 29 69 46q41 17 89 17q45 0 83.5 -13.5q38.5 -13.5 66 -42q27.5 -28.5 43 -71.5q15.5 -43 15.5 -101q0 -52 -14.5 -95q-14.5 -43 -42 -74q-27.5 -31 -67.5 -48t-91 -17z" />
<glyph unicode="&#54;" horiz-adv-x="566" d="M288 -15q-108 0 -164 60q-56 60 -56 161q0 54 17 96q17 42 49 92l192 306h29v-12l-199 -314q25 23 61 36.5q36 13.5 84 13.5q100 0 153.5 -59.5q53.5 -59.5 53.5 -158.5q0 -101 -56.5 -161q-56.5 -60 -163.5 -60zt0 0zM288 13q47 0 82.5 14q35.5 14 59.5 39.5q24 25.5 36 60.5q12 35 12 78q0 42 -11 77q-11 35 -34.5 60.5q-23.5 25.5 -58.5 39.5q-35 14 -83 14q-41 0 -76 -12q-35 -12 -61 -36q-26 -24 -41 -60q-15 -36 -15 -83q0 -43 12 -78q12 -35 36 -60.5q24 -25.5 59.5 -39.5t82.5 -14z" />
<glyph unicode="&#55;" horiz-adv-x="528" d="M191 12l255 660h-360v-160h-30v188h422v-27l-260 -673l-27 0z" />
<glyph unicode="&#56;" horiz-adv-x="598" d="M299 -15q-114 0 -172.5 54.5q-58.5 54.5 -58.5 146.5q0 40 12.5 71q12.5 31 33 53.5q20.5 22.5 47.5 36.5q27 14 56 20q-24 6 -46.5 18.5q-22.5 12.5 -40 32.5q-17.5 20 -28 47.5q-10.5 27.5 -10.5 63.5q0 40 13.5 74q13.5 34 39.5 59q26 25 65 39q39 14 89 14q50 0 88.5 -14q38.5 -14 65 -39q26.5 -25 40 -59q13.5 -34 13.5 -74q0 -36 -10.5 -63.5q-10.5 -27.5 -28 -47.5q-17.5 -20 -40 -32.5q-22.5 -12.5 -45.5 -18.5q28 -6 54.5 -20q26.5 -14 47.5 -36.5q21 -22.5 33.5 -53.5q12.5 -31 12.5 -71q0 -92 -58.5 -146.5q-58.5 -54.5 -172.5 -54.5zt0 0zM298 13q101 0 151.5 47q50.5 47 50.5 125q0 34 -11.5 64.5q-11.5 30.5 -35.5 53q-24 22.5 -61 36q-37 13.5 -87 13.5q-53 0 -92 -12.5q-39 -12.5 -64.5 -34.5q-25.5 -22 -38 -52.5q-12.5 -30.5 -12.5 -67.5q0 -77 50.5 -124.5q50.5 -47.5 149.5 -47.5zt0 0zM292 380q94 0 139 40q45 40 45 112q0 69 -46 112q-46 43 -131 43q-85 0 -131 -43q-46 -43 -46 -112q0 -67 42 -109.5t128 -42.5z" />
<glyph unicode="&#57;" horiz-adv-x="566" d="M217 12l197 315q-25 -24 -61 -37.5q-36 -13.5 -84 -13.5q-103 0 -157 60q-54 60 -54 160q0 49 14.5 89.5q14.5 40.5 42 69q27.5 28.5 68.5 44.5q41 16 95 16q54 0 95 -16q41 -16 69 -44.5q28 -28.5 42 -69q14 -40.5 14 -89.5q0 -27 -4 -50q-4 -23 -12 -45.5q-8 -22.5 -20 -45.5q-12 -23 -28 -49l-189 -306h-28zM278 687q-47 0 -82.5 -14q-35.5 -14 -59.5 -39q-24 -25 -36 -60.5q-12 -35.5 -12 -77.5q0 -42 11.5 -77.5q11.5 -35.5 34.5 -61q23 -25.5 58 -39.5q35 -14 83 -14q40 0 75.5 12q35.5 12 61.5 36q26 24 41 60q15 36 15 84q0 85 -48 138t-142 53z" />
<glyph unicode="&#58;" horiz-adv-x="191" d="M80 126h31v-126h-31zM80 504h31v-126l-31 0z" />
<glyph unicode="&#59;" horiz-adv-x="190" d="M28 -88l78 214h32v-15l-85 -199zM89 504h31v-126l-31 0z" />
<glyph unicode="&#60;" horiz-adv-x="472" d="M52 301v26l349 191h19v-20l-337 -184l337 -184v-21l-19 0z" />
<glyph unicode="&#61;" horiz-adv-x="509" d="M52 218h405v-26h-405zM52 435h405v-26l-405 0z" />
<glyph unicode="&#62;" horiz-adv-x="472" d="M52 130l336 184l-336 184v20h18l350 -191v-26l-350 -192l-18 0z" />
<glyph unicode="&#63;" horiz-adv-x="502" d="M233 319l68 45q23 15 45 31.5q22 16.5 39.5 36.5q17.5 20 28 44.5q10.5 24.5 10.5 57.5q0 30 -10.5 57.5q-10.5 27.5 -31.5 48.5q-21 21 -53.5 34q-32.5 13 -76.5 13q-40 0 -74 -12q-34 -12 -58.5 -36q-24.5 -24 -38.5 -59q-14 -35 -14 -81l-29 0q0 52 16.5 92.5q16.5 40.5 45 68q28.5 27.5 68 41.5q39.5 14 84.5 14q51 0 89 -15q38 -15 63 -40.5q25 -25.5 37.5 -58q12.5 -32.5 12.5 -67.5q0 -39 -14 -69q-14 -30 -34.5 -52.5q-20.5 -22.5 -44 -39q-23.5 -16.5 -41.5 -28.5l-57 -37v-88h-30zM232 123h32v-123l-32 0z" />
<glyph unicode="&#64;" horiz-adv-x="1007" d="M515 -151q-97 0 -177.5 32q-80.5 32 -138 89.5q-57.5 57.5 -89.5 137q-32 79.5 -32 174.5q0 97 32 177q32 80 89.5 137q57.5 57 138 88q80.5 31 177.5 31q88 0 164.5 -27.5q76.5 -27.5 133 -79q56.5 -51.5 89 -124.5q32.5 -73 32.5 -164q0 -59 -12.5 -107.5q-12.5 -48.5 -34.5 -82.5q-22 -34 -53 -52.5q-31 -18.5 -67 -18.5q-18 0 -35 5q-17 5 -30.5 16.5q-13.5 11.5 -22 29q-8.5 17.5 -8.5 42.5v6q-16 -18 -36 -36q-20 -18 -44 -32q-24 -14 -52 -22.5q-28 -8.5 -59 -8.5q-41 0 -73 13.5q-32 13.5 -54 37.5q-22 24 -33 57.5q-11 33.5 -11 72.5v82q0 40 11 73.5q11 33.5 33 57.5q22 24 54 37.5q32 13.5 73 13.5q31 0 58 -8.5q27 -8.5 50.5 -22.5q23.5 -14 43 -31q19.5 -17 34.5 -35l7 85h22v-317q0 -48 21.5 -68q21.5 -20 51.5 -20q59 0 97.5 61q38.5 61 38.5 171q0 85 -30.5 153.5q-30.5 68.5 -83 116q-52.5 47.5 -123.5 73q-71 25.5 -153 25.5q-90 0 -164.5 -29q-74.5 -29 -128.5 -82q-54 -53 -83.5 -128q-29.5 -75 -29.5 -166q0 -90 29.5 -164.5q29.5 -74.5 83.5 -128q54 -53.5 128.5 -83q74.5 -29.5 164.5 -29.5h26v-28zM484 87q28 0 53.5 8.5q25.5 8.5 48.5 22q23 13.5 42.5 31q19.5 17.5 36.5 35.5l0 190q-17 19 -36.5 37q-19.5 18 -42 32.5q-22.5 14.5 -48 23.5q-25.5 9 -54.5 9q-36 0 -63 -12q-27 -12 -45 -32.5q-18 -20.5 -27.5 -49q-9.5 -28.5 -9.5 -61.5v-79q0 -33 9.5 -61.5q9.5 -28.5 27.5 -49q18 -20.5 45 -32.5t63 -12z" />
<glyph unicode="&#65;" horiz-adv-x="652" d="M28 12l281 688h33l282 -688v-12h-31l-85 208h-366l-85 -208h-29zM497 238l-172 421l-172 -421z" />
<glyph unicode="&#66;" horiz-adv-x="643" d="M98 700h291q81 0 125.5 -46q44.5 -46 44.5 -130q0 -70 -31 -108.5q-31 -38.5 -73 -50.5q27 -5 50.5 -18q23.5 -13 41 -35q17.5 -22 28 -53q10.5 -31 10.5 -73q0 -87 -46 -136.5q-46 -49.5 -127 -49.5h-314zM406 30q70 0 108.5 42q38.5 42 38.5 115q0 75 -38.5 116.5q-38.5 41.5 -108.5 41.5h-276v-315zM390 375q66 0 101.5 39.5q35.5 39.5 35.5 108.5q0 69 -36.5 108q-36.5 39 -105.5 39h-255l0 -295z" />
<glyph unicode="&#67;" horiz-adv-x="657" d="M339 -15q-60 0 -108.5 17q-48.5 17 -82.5 49.5q-34 32.5 -52 79q-18 46.5 -18 106.5v226q0 60 18 106.5q18 46.5 52 79q34 32.5 82.5 49.5q48.5 17 108.5 17q50 0 95 -14.5q45 -14.5 79.5 -43.5q34.5 -29 55 -72q20.5 -43 20.5 -100v-10h-32v10q0 49 -18 86.5q-18 37.5 -48.5 63q-30.5 25.5 -70 38q-39.5 12.5 -81.5 12.5q-107 0 -168 -57.5q-61 -57.5 -61 -162.5v-230q0 -105 61 -162.5q61 -57.5 168 -57.5q42 0 81.5 12.5q39.5 12.5 70 38q30.5 25.5 48.5 62.5q18 37 18 87v10h32v-10q0 -57 -20.5 -100q-20.5 -43 -55 -72q-34.5 -29 -79.5 -43.5t-95 -14.5z" />
<glyph unicode="&#68;" horiz-adv-x="669" d="M333 30q105 0 165.5 57.5q60.5 57.5 60.5 159.5v206q0 102 -60.5 159.5q-60.5 57.5 -165.5 57.5h-203v-640zM98 700h235q59 0 106.5 -16.5q47.5 -16.5 81.5 -48q34 -31.5 52 -77.5q18 -46 18 -105v-206q0 -59 -18 -105q-18 -46 -52 -77.5q-34 -31.5 -81.5 -48q-47.5 -16.5 -106.5 -16.5l-235 0z" />
<glyph unicode="&#69;" horiz-adv-x="573" d="M98 700h416v-30h-384v-302h336v-30h-336v-308h384v-30l-416 0z" />
<glyph unicode="&#70;" horiz-adv-x="563" d="M98 700h418v-30h-386v-303h338v-30h-338v-337l-32 0z" />
<glyph unicode="&#71;" horiz-adv-x="687" d="M342 -15q-61 0 -109.5 17q-48.5 17 -83 49.5q-34.5 32.5 -53 79.5q-18.5 47 -18.5 106v226q0 60 18.5 106.5q18.5 46.5 53.5 79q35 32.5 84 49.5q49 17 111 17q50 0 96 -14.5q46 -14.5 81.5 -43.5q35.5 -29 56.5 -71.5q21 -42.5 21 -99.5v-9h-33v9q0 49 -18.5 86.5q-18.5 37.5 -49.5 62.5q-31 25 -71 37.5q-40 12.5 -83 12.5q-109 0 -172 -57.5q-63 -57.5 -63 -162.5v-228q0 -105 62.5 -163.5q62.5 -58.5 171.5 -58.5q81 0 136 36.5q55 36.5 88 115.5l0 140h-197v30h229v-337h-24l-4 122q-32 -66 -87.5 -101.5t-142.5 -35.5z" />
<glyph unicode="&#72;" horiz-adv-x="686" d="M98 700h32v-333h426v333h32v-700h-32v337h-426v-337l-32 0z" />
<glyph unicode="&#73;" horiz-adv-x="228" d="M98 700h32v-700l-32 0z" />
<glyph unicode="&#74;" horiz-adv-x="560" d="M250 -15q-50 0 -91 13.5q-41 13.5 -70 40.5q-29 27 -45 67q-16 40 -16 93v26h32v-26q0 -88 51 -136q51 -48 139 -48q86 0 138 48q52 48 52 137v500h32v-501q0 -52 -16 -92q-16 -40 -45.5 -67q-29.5 -27 -70.5 -41t-90 -14z" />
<glyph unicode="&#75;" horiz-adv-x="587" d="M98 700h32v-333h151l236 333h30v-12l-238 -334l250 -342v-12h-31l-246 337h-152v-337l-32 0z" />
<glyph unicode="&#76;" horiz-adv-x="553" d="M98 700h32v-670h395v-30l-427 0z" />
<glyph unicode="&#77;" horiz-adv-x="792" d="M98 700h31l267 -401l268 401h30v-700h-31v643l-256 -384h-22l-256 383v-642l-31 0z" />
<glyph unicode="&#78;" horiz-adv-x="686" d="M98 700h30l428 -641v641h32v-700h-29l-429 640v-640l-32 0z" />
<glyph unicode="&#79;" horiz-adv-x="672" d="M336 15q106 0 166 58q60 58 60 160v234q0 102 -60 160q-60 58 -166 58q-106 0 -166 -58q-60 -58 -60 -160v-234q0 -102 60 -160q60 -58 166 -58zt0 0zM336 -15q-59 0 -106.5 16.5q-47.5 16.5 -81.5 48.5q-34 32 -52 78.5q-18 46.5 -18 105.5v232q0 59 18 105.5q18 46.5 52 78.5q34 32 81.5 48.5q47.5 16.5 106.5 16.5q59 0 106.5 -16.5q47.5 -16.5 81.5 -48.5q34 -32 52 -78.5q18 -46.5 18 -105.5v-232q0 -59 -18 -105.5q-18 -46.5 -52 -78.5q-34 -32 -81.5 -48.5t-106.5 -16.5z" />
<glyph unicode="&#80;" horiz-adv-x="613" d="M98 700h277q88 0 136.5 -54.5q48.5 -54.5 48.5 -148.5q0 -94 -48.5 -148.5q-48.5 -54.5 -136.5 -54.5h-245v-294h-32zM370 324q74 0 116 46q42 46 42 127q0 81 -42 127q-42 46 -116 46h-240l0 -346z" />
<glyph unicode="&#81;" horiz-adv-x="676" d="M472 16q-59 -31 -136 -31q-59 0 -106.5 16.5q-47.5 16.5 -81.5 48.5q-34 32 -52 78.5q-18 46.5 -18 105.5v232q0 59 18 105.5q18 46.5 52 78.5q34 32 81.5 48.5q47.5 16.5 106.5 16.5q59 0 106.5 -16.5q47.5 -16.5 81.5 -48.5q34 -32 52 -78.5q18 -46.5 18 -105.5v-232q0 -70 -24.5 -121q-24.5 -51 -69.5 -82l98 -138v-12h-30zM336 15q51 0 93 15q42 15 71.5 42.5q29.5 27.5 45.5 68q16 40.5 16 91.5v236q0 103 -60 160q-60 57 -166 57q-106 0 -166 -57q-60 -57 -60 -160v-236q0 -103 60 -160t166 -57z" />
<glyph unicode="&#82;" horiz-adv-x="636" d="M98 700h283q91 0 140 -54.5q49 -54.5 49 -148.5q0 -86 -41.5 -136.5q-41.5 -50.5 -113.5 -61.5l171 -287v-12h-30l-176 294h-250v-294h-32zM372 324q77 0 121 45q44 45 44 128q0 81 -42 127q-42 46 -118 46h-247l0 -346z" />
<glyph unicode="&#83;" horiz-adv-x="617" d="M319 -15q-50 0 -97.5 13.5q-47.5 13.5 -85 43q-37.5 29.5 -60.5 75q-23 45.5 -23 110.5l32 0q0 -58 21 -98q21 -40 55 -65.5q34 -25.5 75.5 -37q41.5 -11.5 83.5 -11.5q49 0 86 11.5q37 11.5 61.5 32q24.5 20.5 36.5 47.5q12 27 12 59q0 58 -38.5 92.5q-38.5 34.5 -118.5 64.5l-105 39q-47 18 -80.5 34.5q-33.5 16.5 -54.5 37q-21 20.5 -31 46q-10 25.5 -10 61.5q0 38 15 70q15 32 43.5 55.5q28.5 23.5 70.5 36.5q42 13 95 13q51 0 95.5 -13.5q44.5 -13.5 77.5 -42q33 -28.5 52 -73q19 -44.5 19 -107.5l-32 0q0 57 -18 96q-18 39 -47.5 63.5q-29.5 24.5 -67.5 35.5q-38 11 -79 11q-91 0 -141.5 -40.5q-50.5 -40.5 -50.5 -102.5q0 -29 8 -50.5q8 -21.5 25 -38q17 -16.5 43.5 -30.5q26.5 -14 63.5 -27l102 -38q44 -17 80.5 -34q36.5 -17 62.5 -39q26 -22 40 -50.5q14 -28.5 14 -68.5q0 -38 -14 -71q-14 -33 -42.5 -57.5q-28.5 -24.5 -72 -38.5t-101.5 -14z" />
<glyph unicode="&#84;" horiz-adv-x="545" d="M257 670h-229v30h489v-30h-228v-670l-32 0z" />
<glyph unicode="&#85;" horiz-adv-x="666" d="M333 -15q-54 0 -99 16q-45 16 -77.5 47.5q-32.5 31.5 -50.5 78q-18 46.5 -18 106.5v467h32v-467q0 -104 58 -161q58 -57 155 -57q97 0 155 56.5q58 56.5 58 161.5v467h32v-467q0 -60 -18 -106q-18 -46 -50.5 -77.5q-32.5 -31.5 -77.5 -48t-99 -16.5z" />
<glyph unicode="&#86;" horiz-adv-x="652" d="M28 688v12h30l268 -659l268 659h30v-12l-281 -688l-34 0z" />
<glyph unicode="&#87;" horiz-adv-x="792" d="M48 688v12h31l126 -650l181 422h21l182 -422l125 650h30v-12l-135 -688h-32l-181 424l-181 -424l-32 0z" />
<glyph unicode="&#88;" horiz-adv-x="598" d="M38 12l241 342l-238 334v12h32l226 -321l228 321h29v-12l-237 -335l241 -341v-12h-32l-230 329l-230 -329l-30 0z" />
<glyph unicode="&#89;" horiz-adv-x="600" d="M284 278l-266 410v12h31l251 -391l252 391h29v-12l-265 -409v-279l-32 0z" />
<glyph unicode="&#90;" horiz-adv-x="563" d="M48 29l421 641h-408v30h445v-29l-421 -641h431v-30l-468 0z" />
<glyph unicode="&#91;" horiz-adv-x="303" d="M98 746h197v-28h-167v-850h167v-28l-197 0z" />
<glyph unicode="&#92;" horiz-adv-x="451" d="M403 -88l-328 834h-27v-12l328 -834l27 0z" />
<glyph unicode="&#93;" horiz-adv-x="303" d="M8 -132h167v844h-167v28h197v-900l-197 0z" />
<glyph unicode="&#94;" horiz-adv-x="476" d="M52 399l172 306h28l172 -306v-12h-26l-160 287l-160 -287l-26 0z" />
<glyph unicode="&#95;" horiz-adv-x="512" d="M-1 -71h514v-26l-514 0z" />
<glyph unicode="&#96;" horiz-adv-x="281" d="M65 718v12h33l118 -140l-34 0z" />
<glyph unicode="&#97;" horiz-adv-x="530" d="M216 -12q-33 0 -62.5 8.5q-29.5 8.5 -52 26q-22.5 17.5 -35.5 44.5q-13 27 -13 64q0 76 53.5 115.5q53.5 39.5 156.5 39.5h154v70q0 28 -9.5 52q-9.5 24 -28.5 42q-19 18 -48 28q-29 10 -68 10q-74 0 -113 -36.5q-39 -36.5 -39 -93.5l-30 0q0 34 11.5 63q11.5 29 34 50q22.5 21 57 33q34.5 12 79.5 12q46 0 81 -12q35 -12 57.5 -33q22.5 -21 34 -50q11.5 -29 11.5 -63v-358h-22l-8 77q-12 -12 -32 -27.5q-20 -15.5 -46.5 -29q-26.5 -13.5 -57.5 -23q-31 -9.5 -65 -9.5zt0 0zM221 16q33 0 62.5 9.5q29.5 9.5 55 24q25.5 14.5 45.5 30.5q20 16 33 28l0 151h-154q-89 0 -134.5 -31.5q-45.5 -31.5 -45.5 -94.5q0 -32 11.5 -54q11.5 -22 30.5 -36q19 -14 44 -20.5t52 -6.5z" />
<glyph unicode="&#98;" horiz-adv-x="560" d="M88 705h30v-285q15 18 35 35q20 17 44.5 30.5q24.5 13.5 53 22q28.5 8.5 59.5 8.5q43 0 76 -14q33 -14 55.5 -38.5q22.5 -24.5 34 -59q11.5 -34.5 11.5 -75.5v-154q0 -41 -11.5 -75.5q-11.5 -34.5 -34 -59.5q-22.5 -25 -55.5 -38.5q-33 -13.5 -75 -13.5q-32 0 -60 8.5q-28 8.5 -53 22q-25 13.5 -45.5 31q-20.5 17.5 -35.5 35.5l-7 -85h-22zM308 488q-30 0 -56.5 -9q-26.5 -9 -50.5 -23.5q-24 -14.5 -45 -32.5q-21 -18 -38 -37l0 -268q17 -19 38 -37q21 -18 45 -32.5q24 -14.5 50.5 -23.5q26.5 -9 56.5 -9q36 0 64 12q28 12 47 34q19 22 28.5 51q9.5 29 9.5 64v150q0 34 -9.5 63.5q-9.5 29.5 -28.5 51.5q-19 22 -47 34t-64 12z" />
<glyph unicode="&#99;" horiz-adv-x="522" d="M264 -12q-49 0 -86 14q-37 14 -62 39q-25 25 -38 59.5q-13 34.5 -13 74.5v154q0 40 13 74.5q13 34.5 38 59.5q25 25 62 39q37 14 86 14q46 0 83 -13q37 -13 62 -35.5q25 -22.5 38.5 -54.5q13.5 -32 13.5 -69v-4h-30v5q0 62 -43.5 102.5q-43.5 40.5 -123.5 40.5q-82 0 -125.5 -45q-43.5 -45 -43.5 -114v-154q0 -70 43.5 -114.5q43.5 -44.5 125.5 -44.5q40 0 71 11q31 11 52.5 30.5q21.5 19.5 32.5 46.5q11 27 11 58v5h30v-5q0 -38 -13.5 -70q-13.5 -32 -38.5 -55q-25 -23 -62 -36t-83 -13z" />
<glyph unicode="&#100;" horiz-adv-x="560" d="M472 0h-22l-7 85q-15 -18 -35.5 -35.5q-20.5 -17.5 -45.5 -31q-25 -13.5 -53.5 -22q-28.5 -8.5 -59.5 -8.5q-42 0 -75 13.5q-33 13.5 -55.5 38.5q-22.5 25 -34 59.5q-11.5 34.5 -11.5 75.5v154q0 41 11.5 75.5q11.5 34.5 34 59q22.5 24.5 55.5 38.5q33 14 76 14q31 0 59.5 -8.5q28.5 -8.5 53 -22q24.5 -13.5 44.5 -30.5q20 -17 35 -35l0 285h30zM252 488q-36 0 -64 -12q-28 -12 -47 -34q-19 -22 -28.5 -51.5q-9.5 -29.5 -9.5 -63.5v-150q0 -35 9.5 -64q9.5 -29 28.5 -51q19 -22 47 -34q28 -12 64 -12q30 0 56.5 9q26.5 9 50.5 23.5q24 14.5 45 32.5q21 18 38 37l0 268q-17 19 -38 37q-21 18 -45 32.5q-24 14.5 -50.5 23.5t-56.5 9z" />
<glyph unicode="&#101;" horiz-adv-x="527" d="M265 -12q-49 0 -86.5 14q-37.5 14 -62.5 39q-25 25 -38 59q-13 34 -13 75v154q0 40 13 74.5q13 34.5 38 59.5q25 25 62.5 39q37.5 14 86.5 14q49 0 86 -14q37 -14 62 -39q25 -25 37.5 -59.5q12.5 -34.5 12.5 -74.5v-85h-368v-69q0 -69 43.5 -114q43.5 -45 126.5 -45q78 0 117 37.5q39 37.5 46 94.5l30 0q-6 -71 -54.5 -115.5q-48.5 -44.5 -138.5 -44.5zt0 0zM433 271v58q0 34 -10.5 63q-10.5 29 -31.5 50.5q-21 21.5 -52.5 33.5q-31.5 12 -74.5 12q-82 0 -125.5 -45q-43.5 -45 -43.5 -114l0 -58z" />
<glyph unicode="&#102;" horiz-adv-x="316" d="M114 477h-91v27h91v54q0 70 35 109.5q35 39.5 106 39.5q12 0 21 -1q9 -1 12 -1l0 -28q-1 0 -10 1q-9 1 -20 1q-54 0 -84 -28q-30 -28 -30 -93v-54h143v-27h-143v-477l-30 0z" />
<glyph unicode="&#103;" horiz-adv-x="560" d="M279 -172q-86 0 -139 42.5q-53 42.5 -56 118.5l30 0q3 -60 47 -96.5q44 -36.5 118 -36.5q76 0 119.5 41.5q43.5 41.5 43.5 125.5v108q-15 -18 -35 -35q-20 -17 -44.5 -30.5q-24.5 -13.5 -53 -22q-28.5 -8.5 -59.5 -8.5q-43 0 -76 13.5q-33 13.5 -55.5 38.5q-22.5 25 -34 59q-11.5 34 -11.5 76v107q0 41 11.5 75.5q11.5 34.5 34 59q22.5 24.5 55.5 38.5q33 14 75 14q31 0 59.5 -8.5q28.5 -8.5 53.5 -22q25 -13.5 45.5 -31q20.5 -17.5 35.5 -35.5l7 85h22v-480q0 -100 -52.5 -148q-52.5 -48 -140.5 -48zt0 0zM253 63q29 0 56 9q27 9 50.5 23.5q23.5 14.5 44.5 32.5q21 18 38 37l0 221q-17 19 -38 37q-21 18 -45 32.5q-24 14.5 -50.5 23.5q-26.5 9 -56.5 9q-36 0 -64 -12q-28 -12 -47 -34q-19 -22 -28.5 -51.5q-9.5 -29.5 -9.5 -63.5v-103q0 -35 9.5 -64q9.5 -29 28.5 -51q19 -22 47 -34t65 -12z" />
<glyph unicode="&#104;" horiz-adv-x="566" d="M88 705h30v-285q16 19 36.5 36q20.5 17 45.5 30.5q25 13.5 53 21.5q28 8 58 8q36 0 67.5 -11.5q31.5 -11.5 54.5 -35q23 -23.5 36.5 -58.5q13.5 -35 13.5 -82v-329h-30v324q0 42 -11.5 73q-11.5 31 -31 51.5q-19.5 20.5 -46.5 30q-27 9.5 -57 9.5q-28 0 -54.5 -8q-26.5 -8 -50.5 -22.5q-24 -14.5 -45 -33q-21 -18.5 -39 -39.5l0 -385l-30 0z" />
<glyph unicode="&#105;" horiz-adv-x="206" d="M88 504h30v-504h-30zM88 705h30v-110l-30 0z" />
<glyph unicode="&#106;" horiz-adv-x="206" d="M118 504v-536q0 -62 -29 -101q-29 -39 -96 -39q-10 0 -18 1q-8 1 -11 1l0 27q5 0 12 -0.5q7 -0.5 15 -0.5q33 0 52.5 11q19.5 11 29 31q9.5 20 12.5 49.5q3 29.5 3 66.5v490zM88 705h30v-110l-30 0z" />
<glyph unicode="&#107;" horiz-adv-x="501" d="M88 705h30v-434h119l180 233h26v-14l-178 -231l188 -244v-15h-27l-188 244h-120v-244l-30 0z" />
<glyph unicode="&#108;" horiz-adv-x="206" d="M88 705h30v-705l-30 0z" />
<glyph unicode="&#109;" horiz-adv-x="886" d="M88 504h22l7 -85q15 19 35 36.5q20 17.5 43 31q23 13.5 49 21.5q26 8 55 8q52 0 92 -26.5q40 -26.5 57 -81.5q16 21 37 40.5q21 19.5 46 34.5q25 15 53 24q28 9 58 9q73 0 117 -45.5q44 -45.5 44 -138.5v-332h-30v326q0 42 -10.5 72.5q-10.5 30.5 -28.5 50.5q-18 20 -43 29.5q-25 9.5 -54 9.5q-53 0 -98.5 -31q-45.5 -31 -82.5 -77q2 -14 3.5 -28q1.5 -14 1.5 -30v-322h-30v326q0 42 -10.5 72.5q-10.5 30.5 -29.5 50.5q-19 20 -44 29.5q-25 9.5 -53 9.5q-26 0 -50.5 -8.5q-24.5 -8.5 -47 -22.5q-22.5 -14 -42.5 -32.5q-20 -18.5 -36 -39.5l0 -385l-30 0z" />
<glyph unicode="&#110;" horiz-adv-x="566" d="M88 504h22l7 -85q16 19 36.5 36.5q20.5 17.5 45 31q24.5 13.5 52.5 21.5q28 8 60 8q36 0 67.5 -11.5q31.5 -11.5 55 -35q23.5 -23.5 36.5 -58.5q13 -35 13 -82v-329h-30v324q0 42 -11.5 73q-11.5 31 -31 51.5q-19.5 20.5 -46.5 30q-27 9.5 -57 9.5q-57 0 -105.5 -30.5q-48.5 -30.5 -83.5 -72.5l0 -385l-30 0z" />
<glyph unicode="&#111;" horiz-adv-x="529" d="M265 16q43 0 75 12.5q32 12.5 53 34q21 21.5 31 50.5q10 29 10 63v152q0 34 -10 63q-10 29 -31 50.5q-21 21.5 -53 34q-32 12.5 -75 12.5q-41 0 -73 -12q-32 -12 -53.5 -33.5q-21.5 -21.5 -32.5 -51q-11 -29.5 -11 -63.5v-152q0 -35 11 -64q11 -29 32.5 -50.5q21.5 -21.5 53.5 -33.5q32 -12 73 -12zt0 0zM265 -12q-50 0 -87.5 14.5q-37.5 14.5 -62.5 39.5q-25 25 -37.5 59q-12.5 34 -12.5 74v154q0 39 12.5 73.5q12.5 34.5 37.5 59.5q25 25 62.5 39.5q37.5 14.5 87.5 14.5q50 0 87.5 -14.5q37.5 -14.5 62 -39.5q24.5 -25 37 -59.5q12.5 -34.5 12.5 -73.5v-154q0 -40 -12.5 -74q-12.5 -34 -37 -59q-24.5 -25 -62 -39.5t-87.5 -14.5z" />
<glyph unicode="&#112;" horiz-adv-x="560" d="M88 504h22l7 -85q15 18 35.5 35.5q20.5 17.5 45.5 31q25 13.5 53 22q28 8.5 60 8.5q42 0 75 -14q33 -14 55.5 -38.5q22.5 -24.5 34 -59q11.5 -34.5 11.5 -75.5v-154q0 -41 -11.5 -75.5q-11.5 -34.5 -34 -59.5q-22.5 -25 -55.5 -38.5q-33 -13.5 -76 -13.5q-31 0 -59.5 8.5q-28.5 8.5 -53 22q-24.5 13.5 -44.5 30.5q-20 17 -35 35l0 -244h-30zM308 16q36 0 64 12q28 12 47 34q19 22 28.5 51q9.5 29 9.5 64v150q0 34 -9.5 63.5q-9.5 29.5 -28.5 51.5q-19 22 -47 34q-28 12 -64 12q-30 0 -56.5 -9q-26.5 -9 -50.5 -23.5q-24 -14.5 -45 -32.5q-21 -18 -38 -37l0 -268q17 -19 38 -37q21 -18 45 -32.5q24 -14.5 50.5 -23.5t56.5 -9z" />
<glyph unicode="&#113;" horiz-adv-x="560" d="M472 -160h-30v244q-15 -18 -35 -35q-20 -17 -44.5 -30.5q-24.5 -13.5 -53 -22q-28.5 -8.5 -59.5 -8.5q-43 0 -76 13.5q-33 13.5 -55.5 38.5q-22.5 25 -34 59.5q-11.5 34.5 -11.5 75.5v154q0 41 11.5 75.5q11.5 34.5 34 59q22.5 24.5 55.5 38.5q33 14 75 14q31 0 59.5 -8.5q28.5 -8.5 53.5 -22q25 -13.5 45.5 -31q20.5 -17.5 35.5 -35.5l7 85h22zM252 16q30 0 56.5 9q26.5 9 50.5 23.5q24 14.5 45 32.5q21 18 38 37l0 268q-17 19 -38 37q-21 18 -45 32.5q-24 14.5 -50.5 23.5q-26.5 9 -56.5 9q-36 0 -64 -12q-28 -12 -47 -34q-19 -22 -28.5 -51.5q-9.5 -29.5 -9.5 -63.5v-150q0 -35 9.5 -64q9.5 -29 28.5 -51q19 -22 47 -34t64 -12z" />
<glyph unicode="&#114;" horiz-adv-x="364" d="M88 504h21l8 -85q17 19 39 36q22 17 48 30.5q26 13.5 55 21.5q29 8 61 8h6v-30h-6q-61 0 -112.5 -27q-51.5 -27 -89.5 -72l0 -386l-30 0z" />
<glyph unicode="&#115;" horiz-adv-x="528" d="M270 -12q-41 0 -79 10q-38 10 -67.5 31.5q-29.5 21.5 -47.5 55q-18 33.5 -18 81.5l30 0q0 -41 16.5 -69.5q16.5 -28.5 42.5 -46.5q26 -18 59 -26q33 -8 66 -8q77 0 117.5 32q40.5 32 40.5 80q0 44 -28.5 65q-28.5 21 -90.5 37l-108 29q-65 16 -95 43.5q-30 27.5 -30 81.5q0 28 12.5 52q12.5 24 36 42q23.5 18 58 28q34.5 10 78.5 10q41 0 76.5 -10.5q35.5 -10.5 61.5 -31.5q26 -21 40.5 -53.5q14.5 -32.5 14.5 -77.5l-30 0q0 38 -12.5 65.5q-12.5 27.5 -34.5 45q-22 17.5 -52.5 26q-30.5 8.5 -65.5 8.5q-75 0 -114 -29.5q-39 -29.5 -39 -73.5q0 -40 23 -62.5q23 -22.5 81 -36.5l108 -28q34 -9 60.5 -19.5q26.5 -10.5 44 -25q17.5 -14.5 26.5 -35q9 -20.5 9 -49.5q0 -61 -48 -101t-142 -40z" />
<glyph unicode="&#116;" horiz-adv-x="347" d="M255 0q-39 0 -65 12q-26 12 -41.5 31q-15.5 19 -22.5 43.5q-7 24.5 -7 48.5v342h-91v27h91v105h30v-105h145v-27h-145v-341q0 -53 27.5 -80q27.5 -27 78.5 -27h39v-29l-39 0z" />
<glyph unicode="&#117;" horiz-adv-x="566" d="M255 -12q-36 0 -67.5 11.5q-31.5 11.5 -55 35q-23.5 23.5 -36.5 58.5q-13 35 -13 82v329h30v-324q0 -42 11.5 -73q11.5 -31 31 -51.5q19.5 -20.5 46 -30q26.5 -9.5 57.5 -9.5q57 0 105.5 30.5q48.5 30.5 83.5 72.5l0 385h30v-504h-22l-7 85q-16 -19 -36.5 -36.5q-20.5 -17.5 -45.5 -31q-25 -13.5 -53 -21.5t-59 -8z" />
<glyph unicode="&#118;" horiz-adv-x="495" d="M28 490v14h28l192 -465l191 465h28v-14l-204 -490l-31 0z" />
<glyph unicode="&#119;" horiz-adv-x="694" d="M53 490v14h28l119 -465l134 362h27l133 -362l120 465h27v-14l-127 -490h-33l-134 359l-134 -359l-32 0z" />
<glyph unicode="&#120;" horiz-adv-x="506" d="M48 15l186 237l-185 238v14h28l176 -228l176 228h26v-14l-184 -237l187 -238v-15h-27l-179 231l-178 -231l-26 0z" />
<glyph unicode="&#121;" horiz-adv-x="494" d="M169 -148l63 148l-204 490v14h28l192 -466l190 466h28v-14l-270 -650l-27 0z" />
<glyph unicode="&#122;" horiz-adv-x="506" d="M58 27l345 450h-329v27h365v-27l-345 -450h348v-27l-384 0z" />
<glyph unicode="&#123;" horiz-adv-x="308" d="M300 -160q-78 0 -124 40.5q-46 40.5 -46 119.5v206q0 42 -16 60.5q-16 18.5 -48 18.5h-28v28h28q35 0 49.5 20.5q14.5 20.5 14.5 58.5v194q0 79 46 119.5q46 40.5 124 40.5l0 -28q-64 0 -102 -34q-38 -34 -38 -98v-200q0 -73 -51 -87q51 -14 51 -87v-212q0 -64 38 -98q38 -34 102 -34l0 -28z" />
<glyph unicode="&#124;" horiz-adv-x="226" d="M98 746h30v-846l-30 0z" />
<glyph unicode="&#125;" horiz-adv-x="308" d="M8 -160q78 0 124 40.5q46 40.5 46 119.5v206q0 42 16 60.5q16 18.5 48 18.5h28v28h-28q-35 0 -49.5 20.5q-14.5 20.5 -14.5 58.5v194q0 79 -46 119.5q-46 40.5 -124 40.5l0 -28q64 0 102 -34q38 -34 38 -98v-200q0 -73 51 -87q-51 -14 -51 -87v-212q0 -64 -38 -98q-38 -34 -102 -34l0 -28z" />
<glyph unicode="&#126;" horiz-adv-x="459" d="M49 282q30 46 54 65q24 19 51 19q18 0 35 -8q17 -8 35 -21l27 -19q17 -12 28 -18q11 -6 26 -6q20 0 38.5 14.5q18.5 14.5 45.5 55.5l21 -14q-29 -47 -53.5 -65.5q-24.5 -18.5 -51.5 -18.5q-19 0 -35.5 7.5q-16.5 7.5 -33.5 20.5l-28 20q-18 13 -29 18.5q-11 5.5 -25 5.5q-21 0 -39 -15q-18 -15 -46 -55z" />
<glyph unicode="&#160;" horiz-adv-x="265" />
<glyph unicode="&#161;" horiz-adv-x="205" d="M88 285h30v-445h-30zM87 504h31v-123l-31 0z" />
<glyph unicode="&#162;" horiz-adv-x="522" d="M249 80q-91 5 -137.5 57q-46.5 52 -46.5 130v154q0 78 46.5 129.5q46.5 51.5 137.5 56.5l0 93h27v-92q43 -2 77.5 -15.5q34.5 -13.5 58.5 -36.5q24 -23 36.5 -53.5q12.5 -30.5 12.5 -66.5v-4h-30v5q0 60 -40.5 99.5q-40.5 39.5 -114.5 42.5l0 -471q75 4 115 45q40 41 40 101v5h30v-5q0 -37 -12.5 -68q-12.5 -31 -36.5 -54q-24 -23 -58.5 -37q-34.5 -14 -77.5 -15l0 -80h-27zM95 267q0 -67 39.5 -110.5q39.5 -43.5 114.5 -48.5l0 471q-75 -5 -114.5 -48.5q-39.5 -43.5 -39.5 -109.5z" />
<glyph unicode="&#163;" horiz-adv-x="573" d="M48 28h80v314h-80v28h80v158q0 40 13 74.5q13 34.5 38 59.5q25 25 62 39q37 14 86 14q46 0 83 -13q37 -13 62.5 -36q25.5 -23 39 -55q13.5 -32 13.5 -70v-38h-30v38q0 63 -43.5 104.5q-43.5 41.5 -124.5 41.5q-82 0 -125.5 -44.5q-43.5 -44.5 -43.5 -114.5v-158h204v-28h-204v-314h367v-28l-477 0z" />
<glyph unicode="&#165;" horiz-adv-x="594" d="M282 123h-210v28h210v127h-210v28h192l-246 382v12h31l248 -390l250 390h29v-12l-247 -382h193v-28h-210v-127h210v-28h-210v-123l-30 0z" />
<glyph unicode="&#166;" horiz-adv-x="226" d="M98 237h30v-337h-30zM98 746h30v-317l-30 0z" />
<glyph unicode="&#167;" horiz-adv-x="555" d="M290 -172q-48 0 -90.5 12q-42.5 12 -74 37q-31.5 25 -49.5 62.5q-18 37.5 -18 88.5l29 0q0 -45 16.5 -77.5q16.5 -32.5 44 -53.5q27.5 -21 65 -31q37.5 -10 79.5 -10q76 0 121.5 36q45.5 36 45.5 96q0 38 -28.5 62q-28.5 24 -75.5 42l-95 36q-44 16 -78.5 32q-34.5 16 -58.5 35q-24 19 -37 43q-13 24 -13 58q0 41 18 81q18 40 44 70q-24 15 -40.5 40q-16.5 25 -16.5 65q0 32 13 60q13 28 38.5 49q25.5 21 62.5 33.5q37 12.5 85 12.5q43 0 82 -11.5q39 -11.5 68 -35.5q29 -24 46 -60.5q17 -36.5 17 -87.5l-29 0q0 44 -15.5 75.5q-15.5 31.5 -41 52q-25.5 20.5 -59 30q-33.5 9.5 -69.5 9.5q-36 0 -67 -9q-31 -9 -53 -25.5q-22 -16.5 -34.5 -40q-12.5 -23.5 -12.5 -52.5q0 -24 8 -41q8 -17 21.5 -29q13.5 -12 30.5 -20.5q17 -8.5 35 -15.5l105 -41q43 -17 77.5 -33q34.5 -16 58.5 -34q24 -18 37 -41q13 -23 13 -54q0 -21 -7 -41.5q-7 -20.5 -17.5 -40q-10.5 -19.5 -24 -37q-13.5 -17.5 -25.5 -31.5q29 -17 49 -41q20 -24 20 -67q0 -32 -13.5 -60.5q-13.5 -28.5 -39 -50q-25.5 -21.5 -62.5 -34q-37 -12.5 -85 -12.5zt0 0zM397 106q29 32 48.5 67q19.5 35 19.5 67q0 27 -13 47q-13 20 -34 35.5q-21 15.5 -48.5 27.5q-27.5 12 -56.5 23l-155 61q-27 -34 -41 -70q-14 -36 -14 -66q0 -29 12 -49q12 -20 32 -35q20 -15 46 -26.5q26 -11.5 53 -22.5z" />
<glyph unicode="&#168;" horiz-adv-x="292" d="M44 705h30v-110h-30zM218 705h30v-110l-30 0z" />
<glyph unicode="&#169;" horiz-adv-x="876" d="M435 140q-42 0 -74 12q-32 12 -53.5 34q-21.5 22 -32.5 52q-11 30 -11 65v95q0 35 11 65q11 30 32.5 51.5q21.5 21.5 53.5 34q32 12.5 74 12.5q79 0 124 -41q45 -41 45 -108v-5h-25v5q0 55 -38.5 90q-38.5 35 -105.5 35q-71 0 -108.5 -38.5q-37.5 -38.5 -37.5 -99.5v-97q0 -61 37.5 -99.5q37.5 -38.5 108.5 -38.5q67 0 105.5 35q38.5 35 38.5 91v4h25v-4q0 -67 -45 -108.5q-45 -41.5 -124 -41.5zt0 0zM438 -15q-76 0 -142 28q-66 28 -114.5 77q-48.5 49 -76 116q-27.5 67 -27.5 144q0 77 27.5 144q27.5 67 76 116q48.5 49 114.5 77q66 28 142 28q76 0 142 -28q66 -28 114.5 -77q48.5 -49 76 -116q27.5 -67 27.5 -144q0 -77 -27.5 -144q-27.5 -67 -76 -116q-48.5 -49 -114.5 -77q-66 -28 -142 -28zt0 0zM438 8q71 0 132.5 26.5q61.5 26.5 106.5 72.5q45 46 71 108.5q26 62.5 26 134.5q0 72 -26 134.5q-26 62.5 -71 108.5q-45 46 -106.5 72.5q-61.5 26.5 -132.5 26.5q-71 0 -132.5 -26.5q-61.5 -26.5 -106.5 -72.5q-45 -46 -71 -108.5q-26 -62.5 -26 -134.5q0 -72 26 -134.5q26 -62.5 71 -108.5q45 -46 106.5 -72.5t132.5 -26.5z" />
<glyph unicode="&#170;" horiz-adv-x="429" d="M175 353q-48 0 -82.5 22.5q-34.5 22.5 -34.5 73.5q0 51 40 77.5q40 26.5 117 26.5h106v42q0 35 -26 58.5q-26 23.5 -80 23.5q-51 0 -78 -22.5q-27 -22.5 -27 -58.5l-31 0q0 47 33.5 78q33.5 31 101.5 31q70 0 103.5 -30.5q33.5 -30.5 33.5 -76.5v-240h-20l-8 52q-10 -8 -25 -18q-15 -10 -34 -18.5q-19 -8.5 -41.5 -14.5q-22.5 -6 -47.5 -6zt0 0zM183 381q22 0 43 6q21 6 39 15q18 9 32.5 19q14.5 10 23.5 17l0 89h-106q-60 0 -92.5 -20q-32.5 -20 -32.5 -58q0 -39 27.5 -53.5t65.5 -14.5z" />
<glyph unicode="&#171;" horiz-adv-x="515" d="M40 266l183 205h27v-13l-172 -192l172 -191v-13h-28zM239 266l183 205h27v-13l-172 -192l172 -191v-13l-28 0z" />
<glyph unicode="&#172;" horiz-adv-x="510" d="M430 409h-378v26h406v-229l-28 0z" />
<glyph unicode="&#173;" horiz-adv-x="432" d="M68 328h297v-30l-297 0z" />
<glyph unicode="&#174;" horiz-adv-x="398" d="M131 632h84q27 0 42 -14q15 -14 15 -39q0 -23 -12.5 -37q-12.5 -14 -33.5 -16l46 -62v-8h-15l-52 69h-57v-69h-17zM213 540q20 0 31.5 10.5q11.5 10.5 11.5 27.5q0 17 -11.5 27.5q-11.5 10.5 -31.5 10.5h-65v-76zM199 371q-35 0 -65.5 13q-30.5 13 -53 36q-22.5 23 -35.5 54.5q-13 31.5 -13 68.5q0 37 13 68.5q13 31.5 35.5 54.5q22.5 23 53 36q30.5 13 65.5 13q35 0 65.5 -13q30.5 -13 53 -36q22.5 -23 35.5 -54.5q13 -31.5 13 -68.5q0 -37 -13 -68.5q-13 -31.5 -35.5 -54.5q-22.5 -23 -53 -36q-30.5 -13 -65.5 -13zt0 0zM199 386q31 0 59 12q28 12 48 33q20 21 32 50q12 29 12 62q0 33 -12 62q-12 29 -32 50q-20 21 -48 33q-28 12 -59 12q-32 0 -59.5 -12q-27.5 -12 -47.5 -33q-20 -21 -32 -50q-12 -29 -12 -62q0 -33 12 -62q12 -29 32 -50q20 -21 47.5 -33t59.5 -12z" />
<glyph unicode="&#175;" horiz-adv-x="448" d="M100 663h248v-26l-248 0z" />
<glyph unicode="&#176;" horiz-adv-x="381" d="M190 399q59 0 87.5 32.5q28.5 32.5 28.5 77.5v70q0 47 -28.5 79q-28.5 32 -87.5 32q-56 0 -85.5 -31.5q-29.5 -31.5 -29.5 -79.5v-70q0 -48 29.5 -79q29.5 -31 85.5 -31zt0 0zM190 374q-70 0 -106 38.5q-36 38.5 -36 99.5v65q0 61 36 99.5q36 38.5 106 38.5q72 0 107.5 -38.5q35.5 -38.5 35.5 -99.5v-65q0 -61 -35.5 -99.5t-107.5 -38.5z" />
<glyph unicode="&#177;" horiz-adv-x="510" d="M242 322h-190v26h190v187h26v-187h190v-26h-190v-188h-26zM52 56h406v-26l-406 0z" />
<glyph unicode="&#178;" horiz-adv-x="311" d="M42 383l108 85q16 13 31.5 25.5q15.5 12.5 27.5 27q12 14.5 19.5 32q7.5 17.5 7.5 38.5q0 40 -23.5 63q-23.5 23 -59.5 23q-37 0 -63 -25q-26 -25 -26 -73l-26 0q0 63 34 94.5q34 31.5 82 31.5q48 0 79 -30q31 -30 31 -81q0 -27 -8.5 -47.5q-8.5 -20.5 -22 -38q-13.5 -17.5 -31 -32q-17.5 -14.5 -34.5 -27.5l-81 -64h184v-27l-229 0z" />
<glyph unicode="&#179;" horiz-adv-x="325" d="M163 353q-55 0 -89 28q-34 28 -36 74l28 0q2 -34 28 -54q26 -20 69 -20q45 0 67.5 19.5q22.5 19.5 22.5 52.5q0 28 -20.5 48.5q-20.5 20.5 -58.5 20.5h-41v27h41q35 0 51.5 18.5q16.5 18.5 16.5 43.5q0 27 -21.5 46.5q-21.5 19.5 -63.5 19.5q-38 0 -62.5 -20.5q-24.5 -20.5 -24.5 -58.5l-26 0q0 51 31.5 79q31.5 28 82.5 28q54 0 83 -26.5q29 -26.5 29 -64.5q0 -31 -15 -50q-15 -19 -40 -27q26 -7 46 -27.5q20 -20.5 20 -55.5q0 -47 -30.5 -74t-87.5 -27z" />
<glyph unicode="&#180;" horiz-adv-x="281" d="M183 730h33v-12l-117 -128l-34 0z" />
<glyph unicode="&#181;" horiz-adv-x="571" d="M88 504h30v-329q0 -40 11.5 -70q11.5 -30 31 -49.5q19.5 -19.5 46.5 -29.5q27 -10 58 -10q28 0 54 8.5q26 8.5 50 22.5q24 14 45.5 32.5q21.5 18.5 38.5 39.5l0 385h30v-504h-22l-7 85q-16 -19 -36.5 -36.5q-20.5 -17.5 -45 -31q-24.5 -13.5 -52.5 -21.5q-28 -8 -58 -8q-50 0 -89 24q-39 24 -55 71l0 -243l-30 0z" />
<glyph unicode="&#182;" horiz-adv-x="560" d="M223 368q-81 0 -128 42q-47 42 -47 120v8q0 80 47 121q47 41 128 41h239v-787h-30v759h-179v-759l-30 0z" />
<glyph unicode="&#183;" horiz-adv-x="191" d="M80 384h31v-126l-31 0z" />
<glyph unicode="&#184;" horiz-adv-x="282" d="M73 -148l114 148h32l-116 -160l-30 0z" />
<glyph unicode="&#185;" horiz-adv-x="214" d="M100 671h-69v15l31 14h66v-342l-28 0z" />
<glyph unicode="&#186;" horiz-adv-x="400" d="M199 381q62 0 92.5 34.5q30.5 34.5 30.5 82.5v61q0 50 -30.5 84q-30.5 34 -92.5 34q-59 0 -90 -33q-31 -33 -31 -85v-61q0 -51 31 -84q31 -33 90 -33zt0 0zM199 353q-75 0 -113 41q-38 41 -38 106v58q0 65 38 106q38 41 113 41q76 0 114.5 -41q38.5 -41 38.5 -106v-58q0 -65 -38.5 -106t-114.5 -41z" />
<glyph unicode="&#187;" horiz-adv-x="515" d="M276 266l-183 205h-27v-13l172 -192l-172 -191v-13h28zM475 266l-183 205h-27v-13l172 -192l-172 -191v-13l28 0z" />
<glyph unicode="&#188;" horiz-adv-x="638" d="M68 12l389 688h26v-12l-389 -688h-26zM100 671h-69v15l31 14h66v-342h-28zM479 342v-14l-121 -219h163v90h27v-90h65v-26h-65v-83h-27v83h-198v20l134 239z" />
<glyph unicode="&#189;" horiz-adv-x="654" d="M68 12l389 688h26v-12l-389 -688h-26zM100 671h-69v15l31 14h66v-342h-28zM385 25l108 85q16 13 31.5 25.5q15.5 12.5 27.5 27q12 14.5 19.5 32q7.5 17.5 7.5 38.5q0 40 -23.5 63q-23.5 23 -59.5 23q-37 0 -63 -25q-26 -25 -26 -73l-26 0q0 63 34 94.5q34 31.5 82 31.5q48 0 79 -30q31 -30 31 -81q0 -27 -8.5 -47.5q-8.5 -20.5 -22 -38q-13.5 -17.5 -31 -32q-17.5 -14.5 -34.5 -27.5l-81 -64h184v-27l-229 0z" />
<glyph unicode="&#190;" horiz-adv-x="735" d="M165 12l389 688h26v-12l-389 -688h-26zM576 341v-14l-121 -219h163v90h27v-90h65v-26h-65v-83h-27v83h-198v20l134 239zM163 353q-55 0 -89 28q-34 28 -36 74l28 0q2 -34 28 -54q26 -20 69 -20q45 0 67.5 19.5q22.5 19.5 22.5 52.5q0 28 -20.5 48.5q-20.5 20.5 -58.5 20.5h-41v27h41q35 0 51.5 18.5q16.5 18.5 16.5 43.5q0 27 -21.5 46.5q-21.5 19.5 -63.5 19.5q-38 0 -62.5 -20.5q-24.5 -20.5 -24.5 -58.5l-26 0q0 51 31.5 79q31.5 28 82.5 28q54 0 83 -26.5q29 -26.5 29 -64.5q0 -31 -15 -50q-15 -19 -40 -27q26 -7 46 -27.5q20 -20.5 20 -55.5q0 -47 -30.5 -74t-87.5 -27z" />
<glyph unicode="&#191;" horiz-adv-x="502" d="M247 -172q-51 0 -88.5 14q-37.5 14 -62.5 37q-25 23 -37.5 54q-12.5 31 -12.5 66q0 39 14 68.5q14 29.5 34.5 51q20.5 21.5 43.5 36.5q23 15 42 26l57 34v70h30v-82l-68 -41q-23 -14 -45.5 -29q-22.5 -15 -39.5 -34q-17 -19 -27.5 -43q-10.5 -24 -10.5 -57q0 -29 10.5 -54.5q10.5 -25.5 31.5 -45.5q21 -20 53.5 -31.5q32.5 -11.5 76.5 -11.5q40 0 73.5 12q33.5 12 58 35.5q24.5 23.5 38.5 58.5q14 35 14 81l30 0q0 -53 -16.5 -93q-16.5 -40 -45.5 -67q-29 -27 -68 -41q-39 -14 -85 -14zt0 0zM235 504h32v-123l-32 0z" />
<glyph unicode="&#192;" horiz-adv-x="652" d="M28 12l281 688h33l282 -688v-12h-31l-85 208h-366l-85 -208h-29zM497 238l-172 421l-172 -421zM187 900v13h35l127 -151l-37 0z" />
<glyph unicode="&#193;" horiz-adv-x="652" d="M28 12l281 688h33l282 -688v-12h-31l-85 208h-366l-85 -208h-29zM497 238l-172 421l-172 -421zM440 913h36v-13l-126 -138l-36 0z" />
<glyph unicode="&#194;" horiz-adv-x="652" d="M28 12l281 688h33l282 -688v-12h-31l-85 208h-366l-85 -208h-29zM497 238l-172 421l-172 -421zM185 775l124 138h33l125 -138v-13h-30l-112 126l-109 -126l-31 0z" />
<glyph unicode="&#195;" horiz-adv-x="652" d="M28 12l281 688h33l282 -688v-12h-31l-85 208h-366l-85 -208h-29zM497 238l-172 421l-172 -421zM157 800q19 24 31.5 40q12.5 16 23.5 26q11 10 21.5 14q10.5 4 24.5 4q16 0 30.5 -8q14.5 -8 31.5 -21l27 -20q18 -12 27 -18.5q9 -6.5 22 -6.5q9 0 16 4q7 4 15 12q8 8 19.5 22q11.5 14 28.5 34l21 -17q-17 -24 -30.5 -40.5q-13.5 -16.5 -25 -26q-11.5 -9.5 -22 -13.5q-10.5 -4 -24.5 -4q-17 0 -30 7.5q-13 7.5 -30 20.5l-28 21q-17 13 -27 19q-10 6 -21 6q-9 0 -16.5 -4q-7.5 -4 -15.5 -12q-8 -8 -19.5 -22q-11.5 -14 -27.5 -34z" />
<glyph unicode="&#196;" horiz-adv-x="652" d="M28 12l281 688h33l282 -688v-12h-31l-85 208h-366l-85 -208h-29zM497 238l-172 421l-172 -421zM216 886h32v-118h-32zM403 886h32v-118l-32 0z" />
<glyph unicode="&#197;" horiz-adv-x="652" d="M28 12l281 688h33l282 -688v-12h-31l-85 208h-366l-85 -208h-29zM497 238l-172 421l-172 -421zM222 847q0 20 8 38.5q8 18.5 22 31.5q14 13 33 21.5q19 8.5 40 8.5q22 0 41 -8.5q19 -8.5 33 -21.5q14 -13 22 -31.5q8 -18.5 8 -38.5q0 -21 -8 -39q-8 -18 -22 -31.5q-14 -13.5 -33 -21.5q-19 -8 -41 -8q-21 0 -40 8q-19 8 -33 21.5q-14 13.5 -22 31.5q-8 18 -8 39zt0 0zM250 847q0 -30 22 -51.5q22 -21.5 53 -21.5q31 0 53.5 21.5q22.5 21.5 22.5 51.5q0 30 -22.5 51.5q-22.5 21.5 -53.5 21.5q-31 0 -53 -21.5t-22 -51.5z" />
<glyph unicode="&#198;" horiz-adv-x="938" d="M18 12l432 688h429v-30h-384v-302h336v-30h-336v-308h384v-30h-416v208h-285l-131 -208h-29zM463 238v424l-267 -424z" />
<glyph unicode="&#199;" horiz-adv-x="657" d="M214 -148l104 134q-112 6 -176 71q-64 65 -64 180v226q0 60 18 106.5q18 46.5 52 79q34 32.5 82.5 49.5q48.5 17 108.5 17q50 0 95 -14.5q45 -14.5 79.5 -43.5q34.5 -29 55 -72q20.5 -43 20.5 -100v-10h-32v10q0 49 -18 86.5q-18 37.5 -48.5 63q-30.5 25.5 -70 38q-39.5 12.5 -81.5 12.5q-107 0 -168 -57.5q-61 -57.5 -61 -162.5v-230q0 -105 61 -162.5q61 -57.5 168 -57.5q42 0 81.5 12.5q39.5 12.5 70 38q30.5 25.5 48.5 62.5q18 37 18 87v10h32v-10q0 -56 -19.5 -98q-19.5 -42 -52 -70.5q-32.5 -28.5 -76 -44q-43.5 -15.5 -91.5 -17.5l-105 -145l-31 0z" />
<glyph unicode="&#200;" horiz-adv-x="573" d="M98 700h416v-30h-384v-302h336v-30h-336v-308h384v-30h-416zM212 900v13h35l127 -151l-37 0z" />
<glyph unicode="&#201;" horiz-adv-x="573" d="M98 700h416v-30h-384v-302h336v-30h-336v-308h384v-30h-416zM390 913h36v-13l-126 -138l-36 0z" />
<glyph unicode="&#202;" horiz-adv-x="573" d="M98 700h416v-30h-384v-302h336v-30h-336v-308h384v-30h-416zM169 775l124 138h33l125 -138v-13h-30l-112 126l-109 -126l-31 0z" />
<glyph unicode="&#203;" horiz-adv-x="573" d="M98 700h416v-30h-384v-302h336v-30h-336v-308h384v-30h-416zM193 886h32v-118h-32zM380 886h32v-118l-32 0z" />
<glyph unicode="&#204;" horiz-adv-x="228" d="M98 700h32v-700h-32zM-27 900v13h35l127 -151l-37 0z" />
<glyph unicode="&#205;" horiz-adv-x="228" d="M98 700h32v-700h-32zM223 913h36v-13l-126 -138l-36 0z" />
<glyph unicode="&#206;" horiz-adv-x="228" d="M98 700h32v-700h-32zM-27 775l124 138h33l125 -138v-13h-30l-112 126l-109 -126l-31 0z" />
<glyph unicode="&#207;" horiz-adv-x="228" d="M98 700h32v-700h-32zM4 887h33v-119h-33zM192 887h32v-119l-32 0z" />
<glyph unicode="&#208;" horiz-adv-x="690" d="M354 30q105 0 165.5 57q60.5 57 60.5 159v208q0 102 -60.5 159q-60.5 57 -165.5 57h-203v-305h227v-28h-227v-307zM119 337h-99v28h99v335h235q58 0 106 -16.5q48 -16.5 81.5 -48q33.5 -31.5 52 -77.5q18.5 -46 18.5 -105v-206q0 -59 -18.5 -105q-18.5 -46 -52 -77.5q-33.5 -31.5 -81.5 -48q-48 -16.5 -106 -16.5l-235 0z" />
<glyph unicode="&#209;" horiz-adv-x="686" d="M98 700h30l428 -641v641h32v-700h-29l-429 640v-640h-32zM178 800q19 24 31.5 40q12.5 16 23.5 26q11 10 21.5 14q10.5 4 24.5 4q16 0 30.5 -8q14.5 -8 31.5 -21l27 -20q18 -12 27 -18.5q9 -6.5 22 -6.5q9 0 16 4q7 4 15 12q8 8 19.5 22q11.5 14 28.5 34l21 -17q-17 -24 -30.5 -40.5q-13.5 -16.5 -25 -26q-11.5 -9.5 -22 -13.5q-10.5 -4 -24.5 -4q-17 0 -30 7.5q-13 7.5 -30 20.5l-28 21q-17 13 -27 19q-10 6 -21 6q-9 0 -16.5 -4q-7.5 -4 -15.5 -12q-8 -8 -19.5 -22q-11.5 -14 -27.5 -34z" />
<glyph unicode="&#210;" horiz-adv-x="672" d="M336 15q106 0 166 58q60 58 60 160v234q0 102 -60 160q-60 58 -166 58q-106 0 -166 -58q-60 -58 -60 -160v-234q0 -102 60 -160q60 -58 166 -58zt0 0zM336 -15q-59 0 -106.5 16.5q-47.5 16.5 -81.5 48.5q-34 32 -52 78.5q-18 46.5 -18 105.5v232q0 59 18 105.5q18 46.5 52 78.5q34 32 81.5 48.5q47.5 16.5 106.5 16.5q59 0 106.5 -16.5q47.5 -16.5 81.5 -48.5q34 -32 52 -78.5q18 -46.5 18 -105.5v-232q0 -59 -18 -105.5q-18 -46.5 -52 -78.5q-34 -32 -81.5 -48.5q-47.5 -16.5 -106.5 -16.5zt0 0zM223 900v13h35l127 -151l-37 0z" />
<glyph unicode="&#211;" horiz-adv-x="672" d="M336 15q106 0 166 58q60 58 60 160v234q0 102 -60 160q-60 58 -166 58q-106 0 -166 -58q-60 -58 -60 -160v-234q0 -102 60 -160q60 -58 166 -58zt0 0zM336 -15q-59 0 -106.5 16.5q-47.5 16.5 -81.5 48.5q-34 32 -52 78.5q-18 46.5 -18 105.5v232q0 59 18 105.5q18 46.5 52 78.5q34 32 81.5 48.5q47.5 16.5 106.5 16.5q59 0 106.5 -16.5q47.5 -16.5 81.5 -48.5q34 -32 52 -78.5q18 -46.5 18 -105.5v-232q0 -59 -18 -105.5q-18 -46.5 -52 -78.5q-34 -32 -81.5 -48.5q-47.5 -16.5 -106.5 -16.5zt0 0zM444 913h36v-13l-126 -138l-36 0z" />
<glyph unicode="&#212;" horiz-adv-x="672" d="M336 15q106 0 166 58q60 58 60 160v234q0 102 -60 160q-60 58 -166 58q-106 0 -166 -58q-60 -58 -60 -160v-234q0 -102 60 -160q60 -58 166 -58zt0 0zM336 -15q-59 0 -106.5 16.5q-47.5 16.5 -81.5 48.5q-34 32 -52 78.5q-18 46.5 -18 105.5v232q0 59 18 105.5q18 46.5 52 78.5q34 32 81.5 48.5q47.5 16.5 106.5 16.5q59 0 106.5 -16.5q47.5 -16.5 81.5 -48.5q34 -32 52 -78.5q18 -46.5 18 -105.5v-232q0 -59 -18 -105.5q-18 -46.5 -52 -78.5q-34 -32 -81.5 -48.5q-47.5 -16.5 -106.5 -16.5zt0 0zM202 775l124 138h33l125 -138v-13h-30l-112 126l-109 -126l-31 0z" />
<glyph unicode="&#213;" horiz-adv-x="672" d="M336 15q106 0 166 58q60 58 60 160v234q0 102 -60 160q-60 58 -166 58q-106 0 -166 -58q-60 -58 -60 -160v-234q0 -102 60 -160q60 -58 166 -58zt0 0zM336 -15q-59 0 -106.5 16.5q-47.5 16.5 -81.5 48.5q-34 32 -52 78.5q-18 46.5 -18 105.5v232q0 59 18 105.5q18 46.5 52 78.5q34 32 81.5 48.5q47.5 16.5 106.5 16.5q59 0 106.5 -16.5q47.5 -16.5 81.5 -48.5q34 -32 52 -78.5q18 -46.5 18 -105.5v-232q0 -59 -18 -105.5q-18 -46.5 -52 -78.5q-34 -32 -81.5 -48.5q-47.5 -16.5 -106.5 -16.5zt0 0zM171 800q19 24 31.5 40q12.5 16 23.5 26q11 10 21.5 14q10.5 4 24.5 4q16 0 30.5 -8q14.5 -8 31.5 -21l27 -20q18 -12 27 -18.5q9 -6.5 22 -6.5q9 0 16 4q7 4 15 12q8 8 19.5 22q11.5 14 28.5 34l21 -17q-17 -24 -30.5 -40.5q-13.5 -16.5 -25 -26q-11.5 -9.5 -22 -13.5q-10.5 -4 -24.5 -4q-17 0 -30 7.5q-13 7.5 -30 20.5l-28 21q-17 13 -27 19q-10 6 -21 6q-9 0 -16.5 -4q-7.5 -4 -15.5 -12q-8 -8 -19.5 -22q-11.5 -14 -27.5 -34z" />
<glyph unicode="&#214;" horiz-adv-x="672" d="M336 15q106 0 166 58q60 58 60 160v234q0 102 -60 160q-60 58 -166 58q-106 0 -166 -58q-60 -58 -60 -160v-234q0 -102 60 -160q60 -58 166 -58zt0 0zM336 -15q-59 0 -106.5 16.5q-47.5 16.5 -81.5 48.5q-34 32 -52 78.5q-18 46.5 -18 105.5v232q0 59 18 105.5q18 46.5 52 78.5q34 32 81.5 48.5q47.5 16.5 106.5 16.5q59 0 106.5 -16.5q47.5 -16.5 81.5 -48.5q34 -32 52 -78.5q18 -46.5 18 -105.5v-232q0 -59 -18 -105.5q-18 -46.5 -52 -78.5q-34 -32 -81.5 -48.5q-47.5 -16.5 -106.5 -16.5zt0 0zM228 886h32v-118h-32zM415 886h32v-118l-32 0z" />
<glyph unicode="&#215;" horiz-adv-x="449" d="M52 159l153 154l-153 152l20 20l153 -153l153 153l19 -20l-153 -152l153 -154l-19 -19l-153 153l-153 -153z" />
<glyph unicode="&#216;" horiz-adv-x="672" d="M336 -15q-67 0 -122 22l-43 -107h-27v12l44 108q-53 30 -81.5 84.5q-28.5 54.5 -28.5 129.5v232q0 59 18 105.5q18 46.5 52 78.5q34 32 81.5 48.5q47.5 16.5 106.5 16.5q68 0 122 -23l44 108h27v-12l-44 -109q52 -31 80.5 -84.5q28.5 -53.5 28.5 -128.5v-232q0 -59 -18 -105.5q-18 -46.5 -52 -78.5q-34 -32 -81.5 -48.5q-47.5 -16.5 -106.5 -16.5zt0 0zM110 233q0 -63 23 -109q23 -46 67 -74l247 613q-50 22 -111 22q-106 0 -166 -58q-60 -58 -60 -160zM336 15q106 0 166.5 58q60.5 58 60.5 160v234q0 62 -23.5 108q-23.5 46 -66.5 74l-247 -613q46 -21 110 -21z" />
<glyph unicode="&#217;" horiz-adv-x="666" d="M333 -15q-54 0 -99 16q-45 16 -77.5 47.5q-32.5 31.5 -50.5 78q-18 46.5 -18 106.5v467h32v-467q0 -104 58 -161q58 -57 155 -57q97 0 155 56.5q58 56.5 58 161.5v467h32v-467q0 -60 -18 -106q-18 -46 -50.5 -77.5q-32.5 -31.5 -77.5 -48q-45 -16.5 -99 -16.5zt0 0zM232 900v13h35l127 -151l-37 0z" />
<glyph unicode="&#218;" horiz-adv-x="666" d="M333 -15q-54 0 -99 16q-45 16 -77.5 47.5q-32.5 31.5 -50.5 78q-18 46.5 -18 106.5v467h32v-467q0 -104 58 -161q58 -57 155 -57q97 0 155 56.5q58 56.5 58 161.5v467h32v-467q0 -60 -18 -106q-18 -46 -50.5 -77.5q-32.5 -31.5 -77.5 -48q-45 -16.5 -99 -16.5zt0 0zM429 913h36v-13l-126 -138l-36 0z" />
<glyph unicode="&#219;" horiz-adv-x="666" d="M333 -15q-54 0 -99 16q-45 16 -77.5 47.5q-32.5 31.5 -50.5 78q-18 46.5 -18 106.5v467h32v-467q0 -104 58 -161q58 -57 155 -57q97 0 155 56.5q58 56.5 58 161.5v467h32v-467q0 -60 -18 -106q-18 -46 -50.5 -77.5q-32.5 -31.5 -77.5 -48q-45 -16.5 -99 -16.5zt0 0zM192 775l124 138h33l125 -138v-13h-30l-112 126l-109 -126l-31 0z" />
<glyph unicode="&#220;" horiz-adv-x="666" d="M333 -15q-54 0 -99 16q-45 16 -77.5 47.5q-32.5 31.5 -50.5 78q-18 46.5 -18 106.5v467h32v-467q0 -104 58 -161q58 -57 155 -57q97 0 155 56.5q58 56.5 58 161.5v467h32v-467q0 -60 -18 -106q-18 -46 -50.5 -77.5q-32.5 -31.5 -77.5 -48q-45 -16.5 -99 -16.5zt0 0zM224 886h32v-118h-32zM411 886h32v-118l-32 0z" />
<glyph unicode="&#221;" horiz-adv-x="600" d="M284 278l-266 410v12h31l251 -391l252 391h29v-12l-265 -409v-279h-32zM399 913h36v-13l-126 -138l-36 0z" />
<glyph unicode="&#222;" horiz-adv-x="613" d="M98 700h32v-145h245q88 0 136.5 -54.5q48.5 -54.5 48.5 -148.5q0 -94 -48.5 -148.5q-48.5 -54.5 -136.5 -54.5h-245v-149h-32zM370 179q74 0 116 46q42 46 42 127q0 81 -42 127q-42 46 -116 46h-240l0 -346z" />
<glyph unicode="&#223;" horiz-adv-x="578" d="M88 469q0 115 54.5 176.5q54.5 61.5 153.5 61.5q46 0 82 -14q36 -14 60.5 -37.5q24.5 -23.5 37 -55q12.5 -31.5 12.5 -66.5q0 -63 -31.5 -100q-31.5 -37 -82.5 -49q28 -6 54.5 -20.5q26.5 -14.5 46.5 -38q20 -23.5 32.5 -54.5q12.5 -31 12.5 -70q0 -101 -56.5 -151.5q-56.5 -50.5 -159.5 -50.5q-26 0 -48.5 3q-22.5 3 -24.5 4l0 28q11 -2 23 -4q10 -2 22.5 -2.5q12.5 -0.5 25.5 -0.5q92 0 140 44q48 44 48 131q0 37 -12.5 68q-12.5 31 -36.5 53q-24 22 -58 34.5q-34 12.5 -77 12.5h-63v27h61q78 0 115 37q37 37 37 98q0 29 -10 55.5q-10 26.5 -30.5 46.5q-20.5 20 -50.5 32q-30 12 -69 12q-85 0 -131.5 -53.5q-46.5 -53.5 -46.5 -153.5v-472l-30 0z" />
<glyph unicode="&#224;" horiz-adv-x="530" d="M216 -12q-33 0 -62.5 8.5q-29.5 8.5 -52 26q-22.5 17.5 -35.5 44.5q-13 27 -13 64q0 76 53.5 115.5q53.5 39.5 156.5 39.5h154v70q0 28 -9.5 52q-9.5 24 -28.5 42q-19 18 -48 28q-29 10 -68 10q-74 0 -113 -36.5q-39 -36.5 -39 -93.5l-30 0q0 34 11.5 63q11.5 29 34 50q22.5 21 57 33q34.5 12 79.5 12q46 0 81 -12q35 -12 57.5 -33q22.5 -21 34 -50q11.5 -29 11.5 -63v-358h-22l-8 77q-12 -12 -32 -27.5q-20 -15.5 -46.5 -29q-26.5 -13.5 -57.5 -23q-31 -9.5 -65 -9.5zt0 0zM221 16q33 0 62.5 9.5q29.5 9.5 55 24q25.5 14.5 45.5 30.5q20 16 33 28l0 151h-154q-89 0 -134.5 -31.5q-45.5 -31.5 -45.5 -94.5q0 -32 11.5 -54q11.5 -22 30.5 -36q19 -14 44 -20.5q25 -6.5 52 -6.5zt0 0zM187 718v12h33l118 -140l-34 0z" />
<glyph unicode="&#225;" horiz-adv-x="529" d="M216 -12q-33 0 -62.5 8.5q-29.5 8.5 -52 26q-22.5 17.5 -35.5 44.5q-13 27 -13 64q0 76 53.5 115.5q53.5 39.5 156.5 39.5h154v70q0 28 -9.5 52q-9.5 24 -28.5 42q-19 18 -48 28q-29 10 -68 10q-74 0 -113 -36.5q-39 -36.5 -39 -93.5l-30 0q0 34 11.5 63q11.5 29 34 50q22.5 21 57 33q34.5 12 79.5 12q46 0 81 -12q35 -12 57.5 -33q22.5 -21 34 -50q11.5 -29 11.5 -63v-358h-22l-8 77q-12 -12 -32 -27.5q-20 -15.5 -46.5 -29q-26.5 -13.5 -57.5 -23q-31 -9.5 -65 -9.5zt0 0zM221 16q33 0 62.5 9.5q29.5 9.5 55 24q25.5 14.5 45.5 30.5q20 16 33 28l0 151h-154q-89 0 -134.5 -31.5q-45.5 -31.5 -45.5 -94.5q0 -32 11.5 -54q11.5 -22 30.5 -36q19 -14 44 -20.5q25 -6.5 52 -6.5zt0 0zM359 730h33v-12l-117 -128l-34 0z" />
<glyph unicode="&#226;" horiz-adv-x="530" d="M216 -12q-33 0 -62.5 8.5q-29.5 8.5 -52 26q-22.5 17.5 -35.5 44.5q-13 27 -13 64q0 76 53.5 115.5q53.5 39.5 156.5 39.5h154v70q0 28 -9.5 52q-9.5 24 -28.5 42q-19 18 -48 28q-29 10 -68 10q-74 0 -113 -36.5q-39 -36.5 -39 -93.5l-30 0q0 34 11.5 63q11.5 29 34 50q22.5 21 57 33q34.5 12 79.5 12q46 0 81 -12q35 -12 57.5 -33q22.5 -21 34 -50q11.5 -29 11.5 -63v-358h-22l-8 77q-12 -12 -32 -27.5q-20 -15.5 -46.5 -29q-26.5 -13.5 -57.5 -23q-31 -9.5 -65 -9.5zt0 0zM221 16q33 0 62.5 9.5q29.5 9.5 55 24q25.5 14.5 45.5 30.5q20 16 33 28l0 151h-154q-89 0 -134.5 -31.5q-45.5 -31.5 -45.5 -94.5q0 -32 11.5 -54q11.5 -22 30.5 -36q19 -14 44 -20.5q25 -6.5 52 -6.5zt0 0zM146 602l116 128h31l116 -128v-12h-28l-104 117l-102 -117l-29 0z" />
<glyph unicode="&#227;" horiz-adv-x="530" d="M216 -12q-33 0 -62.5 8.5q-29.5 8.5 -52 26q-22.5 17.5 -35.5 44.5q-13 27 -13 64q0 76 53.5 115.5q53.5 39.5 156.5 39.5h154v70q0 28 -9.5 52q-9.5 24 -28.5 42q-19 18 -48 28q-29 10 -68 10q-74 0 -113 -36.5q-39 -36.5 -39 -93.5l-30 0q0 34 11.5 63q11.5 29 34 50q22.5 21 57 33q34.5 12 79.5 12q46 0 81 -12q35 -12 57.5 -33q22.5 -21 34 -50q11.5 -29 11.5 -63v-358h-22l-8 77q-12 -12 -32 -27.5q-20 -15.5 -46.5 -29q-26.5 -13.5 -57.5 -23q-31 -9.5 -65 -9.5zt0 0zM221 16q33 0 62.5 9.5q29.5 9.5 55 24q25.5 14.5 45.5 30.5q20 16 33 28l0 151h-154q-89 0 -134.5 -31.5q-45.5 -31.5 -45.5 -94.5q0 -32 11.5 -54q11.5 -22 30.5 -36q19 -14 44 -20.5q25 -6.5 52 -6.5zt0 0zM113 638q18 23 30.5 38.5q12.5 15.5 23 25.5q10.5 10 21 14q10.5 4 23.5 4q16 0 30 -8q14 -8 31 -21l26 -19q17 -12 26 -18q9 -6 22 -6q8 0 15 3.5q7 3.5 15 11.5q8 8 19 21.5q11 13.5 27 33.5l21 -17q-17 -23 -30 -39q-13 -16 -24 -25.5q-11 -9.5 -21.5 -13.5q-10.5 -4 -23.5 -4q-17 0 -29.5 7.5q-12.5 7.5 -29.5 20.5l-27 20q-17 13 -26.5 18.5q-9.5 5.5 -20.5 5.5q-9 0 -16 -3.5q-7 -3.5 -15 -11.5q-8 -8 -19 -21.5q-11 -13.5 -27 -33.5z" />
<glyph unicode="&#228;" horiz-adv-x="530" d="M216 -12q-33 0 -62.5 8.5q-29.5 8.5 -52 26q-22.5 17.5 -35.5 44.5q-13 27 -13 64q0 76 53.5 115.5q53.5 39.5 156.5 39.5h154v70q0 28 -9.5 52q-9.5 24 -28.5 42q-19 18 -48 28q-29 10 -68 10q-74 0 -113 -36.5q-39 -36.5 -39 -93.5l-30 0q0 34 11.5 63q11.5 29 34 50q22.5 21 57 33q34.5 12 79.5 12q46 0 81 -12q35 -12 57.5 -33q22.5 -21 34 -50q11.5 -29 11.5 -63v-358h-22l-8 77q-12 -12 -32 -27.5q-20 -15.5 -46.5 -29q-26.5 -13.5 -57.5 -23q-31 -9.5 -65 -9.5zt0 0zM221 16q33 0 62.5 9.5q29.5 9.5 55 24q25.5 14.5 45.5 30.5q20 16 33 28l0 151h-154q-89 0 -134.5 -31.5q-45.5 -31.5 -45.5 -94.5q0 -32 11.5 -54q11.5 -22 30.5 -36q19 -14 44 -20.5q25 -6.5 52 -6.5zt0 0zM162 705h30v-110h-30zM336 705h30v-110l-30 0z" />
<glyph unicode="&#229;" horiz-adv-x="530" d="M216 -12q-33 0 -62.5 8.5q-29.5 8.5 -52 26q-22.5 17.5 -35.5 44.5q-13 27 -13 64q0 76 53.5 115.5q53.5 39.5 156.5 39.5h154v70q0 28 -9.5 52q-9.5 24 -28.5 42q-19 18 -48 28q-29 10 -68 10q-74 0 -113 -36.5q-39 -36.5 -39 -93.5l-30 0q0 34 11.5 63q11.5 29 34 50q22.5 21 57 33q34.5 12 79.5 12q46 0 81 -12q35 -12 57.5 -33q22.5 -21 34 -50q11.5 -29 11.5 -63v-358h-22l-8 77q-12 -12 -32 -27.5q-20 -15.5 -46.5 -29q-26.5 -13.5 -57.5 -23q-31 -9.5 -65 -9.5zt0 0zM221 16q33 0 62.5 9.5q29.5 9.5 55 24q25.5 14.5 45.5 30.5q20 16 33 28l0 151h-154q-89 0 -134.5 -31.5q-45.5 -31.5 -45.5 -94.5q0 -32 11.5 -54q11.5 -22 30.5 -36q19 -14 44 -20.5q25 -6.5 52 -6.5zt0 0zM172 668q0 19 7.5 36q7.5 17 20.5 29.5q13 12.5 30.5 20q17.5 7.5 37.5 7.5q20 0 38 -7.5q18 -7.5 31 -20q13 -12.5 20.5 -29.5q7.5 -17 7.5 -36q0 -19 -7.5 -36q-7.5 -17 -20.5 -29.5q-13 -12.5 -31 -20q-18 -7.5 -38 -7.5q-20 0 -37.5 7.5q-17.5 7.5 -30.5 20q-13 12.5 -20.5 29.5q-7.5 17 -7.5 36zt0 0zM198 668q0 -28 20.5 -48q20.5 -20 49.5 -20q29 0 50 20q21 20 21 48q0 28 -21 48q-21 20 -50 20q-29 0 -49.5 -20t-20.5 -48z" />
<glyph unicode="&#230;" horiz-adv-x="878" d="M216 -12q-33 0 -62.5 8q-29.5 8 -52 25.5q-22.5 17.5 -35.5 43.5q-13 26 -13 62q0 75 53.5 113.5q53.5 38.5 156.5 38.5h154v78q0 57 -37.5 94q-37.5 37 -116.5 37q-74 0 -113 -36.5q-39 -36.5 -39 -93.5l-30 0q0 34 11.5 63q11.5 29 34 50q22.5 21 57 33q34.5 12 79.5 12q75 0 117 -31.5q42 -31.5 55 -79.5q18 49 63.5 80q45.5 31 117.5 31q49 0 86 -14q37 -14 62 -39q25 -25 37.5 -59.5q12.5 -34.5 12.5 -74.5v-77h-367v-80q0 -71 44 -113.5q44 -42.5 125 -42.5q78 0 117.5 37.5q39.5 37.5 46.5 94.5l30 0q-7 -71 -55 -115.5q-48 -44.5 -139 -44.5q-42 0 -74.5 10q-32.5 10 -55.5 27q-23 17 -38 39.5q-15 22.5 -22 46.5q-15 -24 -36 -46.5q-21 -22.5 -48 -39.5q-27 -17 -58.5 -27q-31.5 -10 -67.5 -10zt0 0zM221 16q36 0 68 12q32 12 57.5 30q25.5 18 43.5 40q18 22 27 43l0 111h-154q-89 0 -134.5 -31q-45.5 -31 -45.5 -91q0 -30 11.5 -52q11.5 -22 30.5 -35.5q19 -13.5 44 -20q25 -6.5 52 -6.5zt0 0zM784 279v49q0 34 -10.5 63q-10.5 29 -31.5 50.5q-21 21.5 -52.5 34q-31.5 12.5 -74.5 12.5q-81 0 -124.5 -45q-43.5 -45 -43.5 -114l0 -50z" />
<glyph unicode="&#231;" horiz-adv-x="522" d="M154 -148l104 136q-47 1 -83 15.5q-36 14.5 -60.5 39.5q-24.5 25 -37 58.5q-12.5 33.5 -12.5 73.5v154q0 40 13 74.5q13 34.5 38 59.5q25 25 62 39q37 14 86 14q46 0 83 -13q37 -13 62 -35.5q25 -22.5 38.5 -54.5q13.5 -32 13.5 -69v-4h-30v5q0 62 -43.5 102.5q-43.5 40.5 -123.5 40.5q-82 0 -125.5 -45q-43.5 -45 -43.5 -114v-154q0 -70 43.5 -114.5q43.5 -44.5 125.5 -44.5q40 0 71 11q31 11 52.5 30.5q21.5 19.5 32.5 46.5q11 27 11 58v5h30v-5q0 -71 -44.5 -118q-44.5 -47 -125.5 -55l-107 -149l-30 0z" />
<glyph unicode="&#232;" horiz-adv-x="527" d="M265 -12q-49 0 -86.5 14q-37.5 14 -62.5 39q-25 25 -38 59q-13 34 -13 75v154q0 40 13 74.5q13 34.5 38 59.5q25 25 62.5 39q37.5 14 86.5 14q49 0 86 -14q37 -14 62 -39q25 -25 37.5 -59.5q12.5 -34.5 12.5 -74.5v-85h-368v-69q0 -69 43.5 -114q43.5 -45 126.5 -45q78 0 117 37.5q39 37.5 46 94.5l30 0q-6 -71 -54.5 -115.5q-48.5 -44.5 -138.5 -44.5zt0 0zM433 271v58q0 34 -10.5 63q-10.5 29 -31.5 50.5q-21 21.5 -52.5 33.5q-31.5 12 -74.5 12q-82 0 -125.5 -45q-43.5 -45 -43.5 -114v-58zM157 718v12h33l118 -140l-34 0z" />
<glyph unicode="&#233;" horiz-adv-x="527" d="M265 -12q-49 0 -86.5 14q-37.5 14 -62.5 39q-25 25 -38 59q-13 34 -13 75v154q0 40 13 74.5q13 34.5 38 59.5q25 25 62.5 39q37.5 14 86.5 14q49 0 86 -14q37 -14 62 -39q25 -25 37.5 -59.5q12.5 -34.5 12.5 -74.5v-85h-368v-69q0 -69 43.5 -114q43.5 -45 126.5 -45q78 0 117 37.5q39 37.5 46 94.5l30 0q-6 -71 -54.5 -115.5q-48.5 -44.5 -138.5 -44.5zt0 0zM433 271v58q0 34 -10.5 63q-10.5 29 -31.5 50.5q-21 21.5 -52.5 33.5q-31.5 12 -74.5 12q-82 0 -125.5 -45q-43.5 -45 -43.5 -114v-58zM334 730h33v-12l-117 -128l-34 0z" />
<glyph unicode="&#234;" horiz-adv-x="527" d="M265 -12q-49 0 -86.5 14q-37.5 14 -62.5 39q-25 25 -38 59q-13 34 -13 75v154q0 40 13 74.5q13 34.5 38 59.5q25 25 62.5 39q37.5 14 86.5 14q49 0 86 -14q37 -14 62 -39q25 -25 37.5 -59.5q12.5 -34.5 12.5 -74.5v-85h-368v-69q0 -69 43.5 -114q43.5 -45 126.5 -45q78 0 117 37.5q39 37.5 46 94.5l30 0q-6 -71 -54.5 -115.5q-48.5 -44.5 -138.5 -44.5zt0 0zM433 271v58q0 34 -10.5 63q-10.5 29 -31.5 50.5q-21 21.5 -52.5 33.5q-31.5 12 -74.5 12q-82 0 -125.5 -45q-43.5 -45 -43.5 -114v-58zM138 602l116 128h31l116 -128v-12h-28l-104 117l-102 -117l-29 0z" />
<glyph unicode="&#235;" horiz-adv-x="527" d="M265 -12q-49 0 -86.5 14q-37.5 14 -62.5 39q-25 25 -38 59q-13 34 -13 75v154q0 40 13 74.5q13 34.5 38 59.5q25 25 62.5 39q37.5 14 86.5 14q49 0 86 -14q37 -14 62 -39q25 -25 37.5 -59.5q12.5 -34.5 12.5 -74.5v-85h-368v-69q0 -69 43.5 -114q43.5 -45 126.5 -45q78 0 117 37.5q39 37.5 46 94.5l30 0q-6 -71 -54.5 -115.5q-48.5 -44.5 -138.5 -44.5zt0 0zM433 271v58q0 34 -10.5 63q-10.5 29 -31.5 50.5q-21 21.5 -52.5 33.5q-31.5 12 -74.5 12q-82 0 -125.5 -45q-43.5 -45 -43.5 -114v-58zM162 705h30v-110h-30zM336 705h30v-110l-30 0z" />
<glyph unicode="&#236;" horiz-adv-x="206" d="M-28 716v12h33l118 -140h-34zM88 504h30v-504l-30 0z" />
<glyph unicode="&#237;" horiz-adv-x="206" d="M201 730h33v-12l-117 -128h-34zM88 504h30v-504l-30 0z" />
<glyph unicode="&#238;" horiz-adv-x="206" d="M88 504h30v-504h-30zM-28 602l116 128h31l116 -128v-12h-28l-104 117l-102 -117l-29 0z" />
<glyph unicode="&#239;" horiz-adv-x="206" d="M1 705h30v-110h-30zM175 705h30v-110h-30zM88 504h30v-504l-30 0z" />
<glyph unicode="&#240;" horiz-adv-x="550" d="M271 -12q-50 0 -87 14q-37 14 -62.5 39q-25.5 25 -38 59.5q-12.5 34.5 -12.5 74.5v90q0 41 11.5 75.5q11.5 34.5 34 59q22.5 24.5 55.5 38.5q33 14 76 14q31 0 58.5 -8q27.5 -8 51.5 -20.5q24 -12.5 44 -29q20 -16.5 36 -33.5q-8 52 -36.5 96q-28.5 44 -66.5 91l-187 0v27h165l-92 115v15h27l102 -130h118v-27h-97q21 -27 39 -52.5q18 -25.5 31.5 -52.5q13.5 -27 21.5 -57q8 -30 8 -65v-146q0 -41 -13 -75q-13 -34 -38.5 -59q-25.5 -25 -62.5 -39q-37 -14 -86 -14zt0 0zM271 16q41 0 72.5 12q31.5 12 53.5 33.5q22 21.5 33 50.5q11 29 11 64v146q-18 19 -39 37q-21 18 -44 32.5q-23 14.5 -49.5 23.5q-26.5 9 -54.5 9q-37 0 -65.5 -12.5q-28.5 -12.5 -48 -34q-19.5 -21.5 -29.5 -51q-10 -29.5 -10 -63.5v-87q0 -34 10.5 -63q10.5 -29 31.5 -50.5q21 -21.5 53 -34t75 -12.5z" />
<glyph unicode="&#241;" horiz-adv-x="566" d="M88 504h22l7 -85q16 19 36.5 36.5q20.5 17.5 45 31q24.5 13.5 52.5 21.5q28 8 60 8q36 0 67.5 -11.5q31.5 -11.5 55 -35q23.5 -23.5 36.5 -58.5q13 -35 13 -82v-329h-30v324q0 42 -11.5 73q-11.5 31 -31 51.5q-19.5 20.5 -46.5 30q-27 9.5 -57 9.5q-57 0 -105.5 -30.5q-48.5 -30.5 -83.5 -72.5l0 -385h-30zM124 638q18 23 30.5 38.5q12.5 15.5 23 25.5q10.5 10 21 14q10.5 4 23.5 4q16 0 30 -8q14 -8 31 -21l26 -19q17 -12 26 -18q9 -6 22 -6q8 0 15 3.5q7 3.5 15 11.5q8 8 19 21.5q11 13.5 27 33.5l21 -17q-17 -23 -30 -39q-13 -16 -24 -25.5q-11 -9.5 -21.5 -13.5q-10.5 -4 -23.5 -4q-17 0 -29.5 7.5q-12.5 7.5 -29.5 20.5l-27 20q-17 13 -26.5 18.5q-9.5 5.5 -20.5 5.5q-9 0 -16 -3.5q-7 -3.5 -15 -11.5q-8 -8 -19 -21.5q-11 -13.5 -27 -33.5z" />
<glyph unicode="&#242;" horiz-adv-x="529" d="M265 16q43 0 75 12.5q32 12.5 53 34q21 21.5 31 50.5q10 29 10 63v152q0 34 -10 63q-10 29 -31 50.5q-21 21.5 -53 34q-32 12.5 -75 12.5q-41 0 -73 -12q-32 -12 -53.5 -33.5q-21.5 -21.5 -32.5 -51q-11 -29.5 -11 -63.5v-152q0 -35 11 -64q11 -29 32.5 -50.5q21.5 -21.5 53.5 -33.5q32 -12 73 -12zt0 0zM265 -12q-50 0 -87.5 14.5q-37.5 14.5 -62.5 39.5q-25 25 -37.5 59q-12.5 34 -12.5 74v154q0 39 12.5 73.5q12.5 34.5 37.5 59.5q25 25 62.5 39.5q37.5 14.5 87.5 14.5q50 0 87.5 -14.5q37.5 -14.5 62 -39.5q24.5 -25 37 -59.5q12.5 -34.5 12.5 -73.5v-154q0 -40 -12.5 -74q-12.5 -34 -37 -59q-24.5 -25 -62 -39.5q-37.5 -14.5 -87.5 -14.5zt0 0zM150 718v12h33l118 -140l-34 0z" />
<glyph unicode="&#243;" horiz-adv-x="529" d="M265 16q43 0 75 12.5q32 12.5 53 34q21 21.5 31 50.5q10 29 10 63v152q0 34 -10 63q-10 29 -31 50.5q-21 21.5 -53 34q-32 12.5 -75 12.5q-41 0 -73 -12q-32 -12 -53.5 -33.5q-21.5 -21.5 -32.5 -51q-11 -29.5 -11 -63.5v-152q0 -35 11 -64q11 -29 32.5 -50.5q21.5 -21.5 53.5 -33.5q32 -12 73 -12zt0 0zM265 -12q-50 0 -87.5 14.5q-37.5 14.5 -62.5 39.5q-25 25 -37.5 59q-12.5 34 -12.5 74v154q0 39 12.5 73.5q12.5 34.5 37.5 59.5q25 25 62.5 39.5q37.5 14.5 87.5 14.5q50 0 87.5 -14.5q37.5 -14.5 62 -39.5q24.5 -25 37 -59.5q12.5 -34.5 12.5 -73.5v-154q0 -40 -12.5 -74q-12.5 -34 -37 -59q-24.5 -25 -62 -39.5q-37.5 -14.5 -87.5 -14.5zt0 0zM355 730h33v-12l-117 -128l-34 0z" />
<glyph unicode="&#244;" horiz-adv-x="529" d="M265 16q43 0 75 12.5q32 12.5 53 34q21 21.5 31 50.5q10 29 10 63v152q0 34 -10 63q-10 29 -31 50.5q-21 21.5 -53 34q-32 12.5 -75 12.5q-41 0 -73 -12q-32 -12 -53.5 -33.5q-21.5 -21.5 -32.5 -51q-11 -29.5 -11 -63.5v-152q0 -35 11 -64q11 -29 32.5 -50.5q21.5 -21.5 53.5 -33.5q32 -12 73 -12zt0 0zM265 -12q-50 0 -87.5 14.5q-37.5 14.5 -62.5 39.5q-25 25 -37.5 59q-12.5 34 -12.5 74v154q0 39 12.5 73.5q12.5 34.5 37.5 59.5q25 25 62.5 39.5q37.5 14.5 87.5 14.5q50 0 87.5 -14.5q37.5 -14.5 62 -39.5q24.5 -25 37 -59.5q12.5 -34.5 12.5 -73.5v-154q0 -40 -12.5 -74q-12.5 -34 -37 -59q-24.5 -25 -62 -39.5q-37.5 -14.5 -87.5 -14.5zt0 0zM133 602l116 128h31l116 -128v-12h-28l-104 117l-102 -117l-29 0z" />
<glyph unicode="&#245;" horiz-adv-x="529" d="M265 16q43 0 75 12.5q32 12.5 53 34q21 21.5 31 50.5q10 29 10 63v152q0 34 -10 63q-10 29 -31 50.5q-21 21.5 -53 34q-32 12.5 -75 12.5q-41 0 -73 -12q-32 -12 -53.5 -33.5q-21.5 -21.5 -32.5 -51q-11 -29.5 -11 -63.5v-152q0 -35 11 -64q11 -29 32.5 -50.5q21.5 -21.5 53.5 -33.5q32 -12 73 -12zt0 0zM265 -12q-50 0 -87.5 14.5q-37.5 14.5 -62.5 39.5q-25 25 -37.5 59q-12.5 34 -12.5 74v154q0 39 12.5 73.5q12.5 34.5 37.5 59.5q25 25 62.5 39.5q37.5 14.5 87.5 14.5q50 0 87.5 -14.5q37.5 -14.5 62 -39.5q24.5 -25 37 -59.5q12.5 -34.5 12.5 -73.5v-154q0 -40 -12.5 -74q-12.5 -34 -37 -59q-24.5 -25 -62 -39.5q-37.5 -14.5 -87.5 -14.5zt0 0zM101 638q18 23 30.5 38.5q12.5 15.5 23 25.5q10.5 10 21 14q10.5 4 23.5 4q16 0 30 -8q14 -8 31 -21l26 -19q17 -12 26 -18q9 -6 22 -6q8 0 15 3.5q7 3.5 15 11.5q8 8 19 21.5q11 13.5 27 33.5l21 -17q-17 -23 -30 -39q-13 -16 -24 -25.5q-11 -9.5 -21.5 -13.5q-10.5 -4 -23.5 -4q-17 0 -29.5 7.5q-12.5 7.5 -29.5 20.5l-27 20q-17 13 -26.5 18.5q-9.5 5.5 -20.5 5.5q-9 0 -16 -3.5q-7 -3.5 -15 -11.5q-8 -8 -19 -21.5q-11 -13.5 -27 -33.5z" />
<glyph unicode="&#246;" horiz-adv-x="529" d="M265 16q43 0 75 12.5q32 12.5 53 34q21 21.5 31 50.5q10 29 10 63v152q0 34 -10 63q-10 29 -31 50.5q-21 21.5 -53 34q-32 12.5 -75 12.5q-41 0 -73 -12q-32 -12 -53.5 -33.5q-21.5 -21.5 -32.5 -51q-11 -29.5 -11 -63.5v-152q0 -35 11 -64q11 -29 32.5 -50.5q21.5 -21.5 53.5 -33.5q32 -12 73 -12zt0 0zM265 -12q-50 0 -87.5 14.5q-37.5 14.5 -62.5 39.5q-25 25 -37.5 59q-12.5 34 -12.5 74v154q0 39 12.5 73.5q12.5 34.5 37.5 59.5q25 25 62.5 39.5q37.5 14.5 87.5 14.5q50 0 87.5 -14.5q37.5 -14.5 62 -39.5q24.5 -25 37 -59.5q12.5 -34.5 12.5 -73.5v-154q0 -40 -12.5 -74q-12.5 -34 -37 -59q-24.5 -25 -62 -39.5q-37.5 -14.5 -87.5 -14.5zt0 0zM161 705h30v-110h-30zM335 705h30v-110l-30 0z" />
<glyph unicode="&#247;" horiz-adv-x="510" d="M239 216h33v-110h-33zM52 326h406v-26h-406zM239 520h33v-110l-33 0z" />
<glyph unicode="&#248;" horiz-adv-x="529" d="M265 -12q-32 0 -59 6.5q-27 6.5 -49 17.5l-67 -138h-25v15l68 137q-34 26 -51 64q-17 38 -17 85v154q0 39 12.5 73.5q12.5 34.5 37.5 59.5q25 25 62.5 39.5q37.5 14.5 87.5 14.5q29 0 54 -5.5q25 -5.5 46 -14.5l74 150h25v-15l-74 -149q37 -26 55.5 -65.5q18.5 -39.5 18.5 -87.5v-154q0 -40 -12.5 -74q-12.5 -34 -37 -59q-24.5 -25 -62 -39.5q-37.5 -14.5 -87.5 -14.5zt0 0zM265 16q43 0 75 12.5q32 12.5 53 34q21 21.5 31 50.5q10 29 10 63v152q0 40 -14.5 73q-14.5 33 -43.5 55l-206 -418q39 -22 95 -22zt0 0zM95 176q0 -79 53 -123l205 416q-38 19 -88 19q-41 0 -73 -12q-32 -12 -53.5 -33.5q-21.5 -21.5 -32.5 -51q-11 -29.5 -11 -63.5z" />
<glyph unicode="&#249;" horiz-adv-x="566" d="M255 -12q-36 0 -67.5 11.5q-31.5 11.5 -55 35q-23.5 23.5 -36.5 58.5q-13 35 -13 82v329h30v-324q0 -42 11.5 -73q11.5 -31 31 -51.5q19.5 -20.5 46 -30q26.5 -9.5 57.5 -9.5q57 0 105.5 30.5q48.5 30.5 83.5 72.5l0 385h30v-504h-22l-7 85q-16 -19 -36.5 -36.5q-20.5 -17.5 -45.5 -31q-25 -13.5 -53 -21.5q-28 -8 -59 -8zt0 0zM178 718v12h33l118 -140l-34 0z" />
<glyph unicode="&#250;" horiz-adv-x="566" d="M255 -12q-36 0 -67.5 11.5q-31.5 11.5 -55 35q-23.5 23.5 -36.5 58.5q-13 35 -13 82v329h30v-324q0 -42 11.5 -73q11.5 -31 31 -51.5q19.5 -20.5 46 -30q26.5 -9.5 57.5 -9.5q57 0 105.5 30.5q48.5 30.5 83.5 72.5l0 385h30v-504h-22l-7 85q-16 -19 -36.5 -36.5q-20.5 -17.5 -45.5 -31q-25 -13.5 -53 -21.5q-28 -8 -59 -8zt0 0zM358 730h33v-12l-117 -128l-34 0z" />
<glyph unicode="&#251;" horiz-adv-x="566" d="M255 -12q-36 0 -67.5 11.5q-31.5 11.5 -55 35q-23.5 23.5 -36.5 58.5q-13 35 -13 82v329h30v-324q0 -42 11.5 -73q11.5 -31 31 -51.5q19.5 -20.5 46 -30q26.5 -9.5 57.5 -9.5q57 0 105.5 30.5q48.5 30.5 83.5 72.5l0 385h30v-504h-22l-7 85q-16 -19 -36.5 -36.5q-20.5 -17.5 -45.5 -31q-25 -13.5 -53 -21.5q-28 -8 -59 -8zt0 0zM151 602l116 128h31l116 -128v-12h-28l-104 117l-102 -117l-29 0z" />
<glyph unicode="&#252;" horiz-adv-x="566" d="M255 -12q-36 0 -67.5 11.5q-31.5 11.5 -55 35q-23.5 23.5 -36.5 58.5q-13 35 -13 82v329h30v-324q0 -42 11.5 -73q11.5 -31 31 -51.5q19.5 -20.5 46 -30q26.5 -9.5 57.5 -9.5q57 0 105.5 30.5q48.5 30.5 83.5 72.5l0 385h30v-504h-22l-7 85q-16 -19 -36.5 -36.5q-20.5 -17.5 -45.5 -31q-25 -13.5 -53 -21.5q-28 -8 -59 -8zt0 0zM178 705h30v-110h-30zM352 705h30v-110l-30 0z" />
<glyph unicode="&#253;" horiz-adv-x="494" d="M169 -148l63 148l-204 490v14h28l192 -466l190 466h28v-14l-270 -650h-27zM326 730h33v-12l-117 -128l-34 0z" />
<glyph unicode="&#254;" horiz-adv-x="560" d="M88 705h30v-285q15 18 35.5 35q20.5 17 45 30.5q24.5 13.5 52.5 22q28 8.5 60 8.5q42 0 75 -14q33 -14 55.5 -38.5q22.5 -24.5 34 -59q11.5 -34.5 11.5 -75.5v-154q0 -41 -11.5 -75.5q-11.5 -34.5 -34 -59.5q-22.5 -25 -55.5 -38.5q-33 -13.5 -76 -13.5q-31 0 -59.5 8.5q-28.5 8.5 -53 22q-24.5 13.5 -44.5 30.5q-20 17 -35 35l0 -244h-30zM308 16q36 0 64 12q28 12 47 34q19 22 28.5 51q9.5 29 9.5 64v150q0 34 -9.5 63.5q-9.5 29.5 -28.5 51.5q-19 22 -47 34q-28 12 -64 12q-30 0 -56.5 -9q-26.5 -9 -50.5 -23.5q-24 -14.5 -45 -32.5q-21 -18 -38 -37l0 -268q17 -19 38 -37q21 -18 45 -32.5q24 -14.5 50.5 -23.5t56.5 -9z" />
<glyph unicode="&#255;" horiz-adv-x="494" d="M169 -148l63 148l-204 490v14h28l192 -466l190 466h28v-14l-270 -650h-27zM143 705h30v-110h-30zM317 705h30v-110l-30 0z" />
<glyph unicode="&#256;" horiz-adv-x="652" d="M28 12l281 688h33l282 -688v-12h-31l-85 208h-366l-85 -208h-29zM497 238l-172 421l-172 -421zM193 841h266v-27l-266 0z" />
<glyph unicode="&#257;" horiz-adv-x="530" d="M216 -12q-33 0 -62.5 8.5q-29.5 8.5 -52 26q-22.5 17.5 -35.5 44.5q-13 27 -13 64q0 76 53.5 115.5q53.5 39.5 156.5 39.5h154v70q0 28 -9.5 52q-9.5 24 -28.5 42q-19 18 -48 28q-29 10 -68 10q-74 0 -113 -36.5q-39 -36.5 -39 -93.5l-30 0q0 34 11.5 63q11.5 29 34 50q22.5 21 57 33q34.5 12 79.5 12q46 0 81 -12q35 -12 57.5 -33q22.5 -21 34 -50q11.5 -29 11.5 -63v-358h-22l-8 77q-12 -12 -32 -27.5q-20 -15.5 -46.5 -29q-26.5 -13.5 -57.5 -23q-31 -9.5 -65 -9.5zt0 0zM221 16q33 0 62.5 9.5q29.5 9.5 55 24q25.5 14.5 45.5 30.5q20 16 33 28l0 151h-154q-89 0 -134.5 -31.5q-45.5 -31.5 -45.5 -94.5q0 -32 11.5 -54q11.5 -22 30.5 -36q19 -14 44 -20.5q25 -6.5 52 -6.5zt0 0zM143 663h248v-26l-248 0z" />
<glyph unicode="&#260;" horiz-adv-x="652" d="M633 -160q-45 0 -70.5 19.5q-25.5 19.5 -25.5 53.5q0 18 12.5 40q12.5 22 43.5 47l-85 208h-366l-85 -208h-29v12l281 688h33l282 -688v-12q-33 -24 -46.5 -44.5q-13.5 -20.5 -13.5 -37.5q0 -29 21 -41q21 -12 56 -12h44v-25zM497 238l-172 421l-172 -421z" />
<glyph unicode="&#261;" horiz-adv-x="529" d="M455 -160q-45 0 -70.5 19q-25.5 19 -25.5 53q0 21 15 43.5q15 22.5 51 47.5l-8 74q-12 -12 -32 -27.5q-20 -15.5 -46.5 -29q-26.5 -13.5 -57.5 -23q-31 -9.5 -65 -9.5q-33 0 -62.5 8.5q-29.5 8.5 -52 26q-22.5 17.5 -35.5 44.5q-13 27 -13 64q0 76 53.5 115.5q53.5 39.5 156.5 39.5h154v70q0 28 -9.5 52q-9.5 24 -28.5 42q-19 18 -48 28q-29 10 -68 10q-74 0 -113 -36.5q-39 -36.5 -39 -93.5l-30 0q0 34 11.5 63q11.5 29 34 50q22.5 21 57 33q34.5 12 79.5 12q46 0 81 -12q35 -12 57.5 -33q22.5 -21 34 -50q11.5 -29 11.5 -63v-358q-33 -24 -46.5 -43.5q-13.5 -19.5 -13.5 -39.5q0 -28 21 -40q21 -12 56 -12h44v-25zM221 16q33 0 62.5 9.5q29.5 9.5 55 24q25.5 14.5 45.5 30.5q20 16 33 28l0 151h-154q-89 0 -134.5 -31.5q-45.5 -31.5 -45.5 -94.5q0 -32 11.5 -54q11.5 -22 30.5 -36q19 -14 44 -20.5t52 -6.5z" />
<glyph unicode="&#262;" horiz-adv-x="657" d="M339 -15q-60 0 -108.5 17q-48.5 17 -82.5 49.5q-34 32.5 -52 79q-18 46.5 -18 106.5v226q0 60 18 106.5q18 46.5 52 79q34 32.5 82.5 49.5q48.5 17 108.5 17q50 0 95 -14.5q45 -14.5 79.5 -43.5q34.5 -29 55 -72q20.5 -43 20.5 -100v-10h-32v10q0 49 -18 86.5q-18 37.5 -48.5 63q-30.5 25.5 -70 38q-39.5 12.5 -81.5 12.5q-107 0 -168 -57.5q-61 -57.5 -61 -162.5v-230q0 -105 61 -162.5q61 -57.5 168 -57.5q42 0 81.5 12.5q39.5 12.5 70 38q30.5 25.5 48.5 62.5q18 37 18 87v10h32v-10q0 -57 -20.5 -100q-20.5 -43 -55 -72q-34.5 -29 -79.5 -43.5q-45 -14.5 -95 -14.5zt0 0zM438 913h36v-13l-126 -138l-36 0z" />
<glyph unicode="&#263;" horiz-adv-x="522" d="M264 -12q-49 0 -86 14q-37 14 -62 39q-25 25 -38 59.5q-13 34.5 -13 74.5v154q0 40 13 74.5q13 34.5 38 59.5q25 25 62 39q37 14 86 14q46 0 83 -13q37 -13 62 -35.5q25 -22.5 38.5 -54.5q13.5 -32 13.5 -69v-4h-30v5q0 62 -43.5 102.5q-43.5 40.5 -123.5 40.5q-82 0 -125.5 -45q-43.5 -45 -43.5 -114v-154q0 -70 43.5 -114.5q43.5 -44.5 125.5 -44.5q40 0 71 11q31 11 52.5 30.5q21.5 19.5 32.5 46.5q11 27 11 58v5h30v-5q0 -38 -13.5 -70q-13.5 -32 -38.5 -55q-25 -23 -62 -36q-37 -13 -83 -13zt0 0zM339 730h33v-12l-117 -128l-34 0z" />
<glyph unicode="&#268;" horiz-adv-x="657" d="M339 -15q-60 0 -108.5 17q-48.5 17 -82.5 49.5q-34 32.5 -52 79q-18 46.5 -18 106.5v226q0 60 18 106.5q18 46.5 52 79q34 32.5 82.5 49.5q48.5 17 108.5 17q50 0 95 -14.5q45 -14.5 79.5 -43.5q34.5 -29 55 -72q20.5 -43 20.5 -100v-10h-32v10q0 49 -18 86.5q-18 37.5 -48.5 63q-30.5 25.5 -70 38q-39.5 12.5 -81.5 12.5q-107 0 -168 -57.5q-61 -57.5 -61 -162.5v-230q0 -105 61 -162.5q61 -57.5 168 -57.5q42 0 81.5 12.5q39.5 12.5 70 38q30.5 25.5 48.5 62.5q18 37 18 87v10h32v-10q0 -57 -20.5 -100q-20.5 -43 -55 -72q-34.5 -29 -79.5 -43.5q-45 -14.5 -95 -14.5zt0 0zM196 900v13h31l109 -125l112 125h30v-13l-125 -137l-33 0z" />
<glyph unicode="&#269;" horiz-adv-x="522" d="M264 -12q-49 0 -86 14q-37 14 -62 39q-25 25 -38 59.5q-13 34.5 -13 74.5v154q0 40 13 74.5q13 34.5 38 59.5q25 25 62 39q37 14 86 14q46 0 83 -13q37 -13 62 -35.5q25 -22.5 38.5 -54.5q13.5 -32 13.5 -69v-4h-30v5q0 62 -43.5 102.5q-43.5 40.5 -123.5 40.5q-82 0 -125.5 -45q-43.5 -45 -43.5 -114v-154q0 -70 43.5 -114.5q43.5 -44.5 125.5 -44.5q40 0 71 11q31 11 52.5 30.5q21.5 19.5 32.5 46.5q11 27 11 58v5h30v-5q0 -38 -13.5 -70q-13.5 -32 -38.5 -55q-25 -23 -62 -36q-37 -13 -83 -13zt0 0zM135 718v12h29l102 -117l104 117h28v-12l-116 -128l-31 0z" />
<glyph unicode="&#270;" horiz-adv-x="669" d="M333 30q105 0 165.5 57.5q60.5 57.5 60.5 159.5v206q0 102 -60.5 159.5q-60.5 57.5 -165.5 57.5h-203v-640zM98 700h235q59 0 106.5 -16.5q47.5 -16.5 81.5 -48q34 -31.5 52 -77.5q18 -46 18 -105v-206q0 -59 -18 -105q-18 -46 -52 -77.5q-34 -31.5 -81.5 -48q-47.5 -16.5 -106.5 -16.5h-235zM179 900v13h31l109 -125l112 125h30v-13l-125 -137l-33 0z" />
<glyph unicode="&#271;" horiz-adv-x="647" d="M472 0h-22l-7 85q-15 -18 -35.5 -35.5q-20.5 -17.5 -45.5 -31q-25 -13.5 -53.5 -22q-28.5 -8.5 -59.5 -8.5q-42 0 -75 13.5q-33 13.5 -55.5 38.5q-22.5 25 -34 59.5q-11.5 34.5 -11.5 75.5v154q0 41 11.5 75.5q11.5 34.5 34 59q22.5 24.5 55.5 38.5q33 14 76 14q31 0 59.5 -8.5q28.5 -8.5 53 -22q24.5 -13.5 44.5 -30.5q20 -17 35 -35l0 285h30zM252 488q-36 0 -64 -12q-28 -12 -47 -34q-19 -22 -28.5 -51.5q-9.5 -29.5 -9.5 -63.5v-150q0 -35 9.5 -64q9.5 -29 28.5 -51q19 -22 47 -34q28 -12 64 -12q30 0 56.5 9q26.5 9 50.5 23.5q24 14.5 45 32.5q21 18 38 37l0 268q-17 19 -38 37q-21 18 -45 32.5q-24 14.5 -50.5 23.5q-26.5 9 -56.5 9zt0 0zM633 705h32v-15l-76 -158l-26 0z" />
<glyph unicode="&#274;" horiz-adv-x="573" d="M98 700h416v-30h-384v-302h336v-30h-336v-308h384v-30h-416zM174 841h266v-27l-266 0z" />
<glyph unicode="&#275;" horiz-adv-x="527" d="M265 -12q-49 0 -86.5 14q-37.5 14 -62.5 39q-25 25 -38 59q-13 34 -13 75v154q0 40 13 74.5q13 34.5 38 59.5q25 25 62.5 39q37.5 14 86.5 14q49 0 86 -14q37 -14 62 -39q25 -25 37.5 -59.5q12.5 -34.5 12.5 -74.5v-85h-368v-69q0 -69 43.5 -114q43.5 -45 126.5 -45q78 0 117 37.5q39 37.5 46 94.5l30 0q-6 -71 -54.5 -115.5q-48.5 -44.5 -138.5 -44.5zt0 0zM433 271v58q0 34 -10.5 63q-10.5 29 -31.5 50.5q-21 21.5 -52.5 33.5q-31.5 12 -74.5 12q-82 0 -125.5 -45q-43.5 -45 -43.5 -114v-58zM141 663h248v-26l-248 0z" />
<glyph unicode="&#278;" horiz-adv-x="573" d="M98 700h416v-30h-384v-302h336v-30h-336v-308h384v-30h-416zM288 892h32v-118l-32 0z" />
<glyph unicode="&#279;" horiz-adv-x="527" d="M265 -12q-49 0 -86.5 14q-37.5 14 -62.5 39q-25 25 -38 59q-13 34 -13 75v154q0 40 13 74.5q13 34.5 38 59.5q25 25 62.5 39q37.5 14 86.5 14q49 0 86 -14q37 -14 62 -39q25 -25 37.5 -59.5q12.5 -34.5 12.5 -74.5v-85h-368v-69q0 -69 43.5 -114q43.5 -45 126.5 -45q78 0 117 37.5q39 37.5 46 94.5l30 0q-6 -71 -54.5 -115.5q-48.5 -44.5 -138.5 -44.5zt0 0zM433 271v58q0 34 -10.5 63q-10.5 29 -31.5 50.5q-21 21.5 -52.5 33.5q-31.5 12 -74.5 12q-82 0 -125.5 -45q-43.5 -45 -43.5 -114v-58zM250 710h30v-110l-30 0z" />
<glyph unicode="&#280;" horiz-adv-x="573" d="M523 -160q-45 0 -70.5 19q-25.5 19 -25.5 54q0 18 12.5 40q12.5 22 43.5 47l-385 0v700h416v-30h-384v-302h336v-30h-336v-308h384v-30q-32 -24 -45.5 -44.5q-13.5 -20.5 -13.5 -37.5q0 -29 20.5 -41q20.5 -12 56.5 -12h44v-25l-53 0z" />
<glyph unicode="&#281;" horiz-adv-x="527" d="M357 -160q-45 0 -70.5 19q-25.5 19 -25.5 54q0 17 10 36.5q10 19.5 36 42.5q-11 -2 -21 -3q-10 -1 -21 -1q-49 0 -86.5 14q-37.5 14 -62.5 39q-25 25 -38 59q-13 34 -13 75v154q0 40 13 74.5q13 34.5 38 59.5q25 25 62.5 39q37.5 14 86.5 14q49 0 86 -14q37 -14 62 -39q25 -25 37.5 -59.5q12.5 -34.5 12.5 -74.5v-85h-368v-69q0 -69 43.5 -114q43.5 -45 126.5 -45q78 0 117 37.5q39 37.5 46 94.5l30 0q-3 -32 -12 -55q-9 -23 -22.5 -39.5q-13.5 -16.5 -30 -28.5q-16.5 -12 -35.5 -21q-32 -16 -50.5 -40.5q-18.5 -24.5 -18.5 -45.5q0 -28 20.5 -40.5q20.5 -12.5 56.5 -12.5h44v-25zM433 271v58q0 34 -10.5 63q-10.5 29 -31.5 50.5q-21 21.5 -52.5 33.5q-31.5 12 -74.5 12q-82 0 -125.5 -45q-43.5 -45 -43.5 -114l0 -58z" />
<glyph unicode="&#282;" horiz-adv-x="573" d="M98 700h416v-30h-384v-302h336v-30h-336v-308h384v-30h-416zM170 900v13h31l109 -125l112 125h30v-13l-125 -137l-33 0z" />
<glyph unicode="&#283;" horiz-adv-x="527" d="M265 -12q-49 0 -86.5 14q-37.5 14 -62.5 39q-25 25 -38 59q-13 34 -13 75v154q0 40 13 74.5q13 34.5 38 59.5q25 25 62.5 39q37.5 14 86.5 14q49 0 86 -14q37 -14 62 -39q25 -25 37.5 -59.5q12.5 -34.5 12.5 -74.5v-85h-368v-69q0 -69 43.5 -114q43.5 -45 126.5 -45q78 0 117 37.5q39 37.5 46 94.5l30 0q-6 -71 -54.5 -115.5q-48.5 -44.5 -138.5 -44.5zt0 0zM433 271v58q0 34 -10.5 63q-10.5 29 -31.5 50.5q-21 21.5 -52.5 33.5q-31.5 12 -74.5 12q-82 0 -125.5 -45q-43.5 -45 -43.5 -114v-58zM131 718v12h29l102 -117l104 117h28v-12l-116 -128l-31 0z" />
<glyph unicode="&#290;" horiz-adv-x="689" d="M342 -15q-61 0 -109.5 17q-48.5 17 -83 49.5q-34.5 32.5 -53 79.5q-18.5 47 -18.5 106v226q0 60 18.5 106.5q18.5 46.5 53.5 79q35 32.5 84 49.5q49 17 111 17q50 0 96 -14.5q46 -14.5 81.5 -43.5q35.5 -29 56.5 -71.5q21 -42.5 21 -99.5v-9h-33v9q0 49 -18.5 86.5q-18.5 37.5 -49.5 62.5q-31 25 -71 37.5q-40 12.5 -83 12.5q-109 0 -172 -57.5q-63 -57.5 -63 -162.5v-228q0 -105 62.5 -163.5q62.5 -58.5 171.5 -58.5q81 0 136 36.5q55 36.5 88 115.5l0 140h-197v30h229v-337h-24l-4 122q-32 -66 -87.5 -101.5q-55.5 -35.5 -142.5 -35.5zt0 0zM351 -67h32v-15l-76 -158l-26 0z" />
<glyph unicode="&#291;" horiz-adv-x="560" d="M279 -172q-86 0 -139 42.5q-53 42.5 -56 118.5l30 0q3 -60 47 -96.5q44 -36.5 118 -36.5q76 0 119.5 41.5q43.5 41.5 43.5 125.5v108q-15 -18 -35 -35q-20 -17 -44.5 -30.5q-24.5 -13.5 -53 -22q-28.5 -8.5 -59.5 -8.5q-43 0 -76 13.5q-33 13.5 -55.5 38.5q-22.5 25 -34 59q-11.5 34 -11.5 76v107q0 41 11.5 75.5q11.5 34.5 34 59q22.5 24.5 55.5 38.5q33 14 75 14q31 0 59.5 -8.5q28.5 -8.5 53.5 -22q25 -13.5 45.5 -31q20.5 -17.5 35.5 -35.5l7 85h22v-480q0 -100 -52.5 -148q-52.5 -48 -140.5 -48zt0 0zM253 63q29 0 56 9q27 9 50.5 23.5q23.5 14.5 44.5 32.5q21 18 38 37l0 221q-17 19 -38 37q-21 18 -45 32.5q-24 14.5 -50.5 23.5q-26.5 9 -56.5 9q-36 0 -64 -12q-28 -12 -47 -34q-19 -22 -28.5 -51.5q-9.5 -29.5 -9.5 -63.5v-103q0 -35 9.5 -64q9.5 -29 28.5 -51q19 -22 47 -34q28 -12 65 -12zt0 0zM293 586h-29v15l70 158l24 0z" />
<glyph unicode="&#298;" horiz-adv-x="228" d="M98 700h32v-700h-32zM-19 841h266v-27l-266 0z" />
<glyph unicode="&#299;" horiz-adv-x="206" d="M-21 663h248v-26h-248zM88 504h30v-504l-30 0z" />
<glyph unicode="&#302;" horiz-adv-x="228" d="M139 -160q-45 0 -70.5 19.5q-25.5 19.5 -25.5 53.5q0 18 12 40q12 22 43 47l0 700h32v-700q-33 -24 -46.5 -44.5q-13.5 -20.5 -13.5 -37.5q0 -29 21 -41q21 -12 56 -12h44v-25l-52 0z" />
<glyph unicode="&#303;" horiz-adv-x="206" d="M127 -160q-45 0 -70.5 19q-25.5 19 -25.5 53q0 21 13 43.5q13 22.5 44 47.5l0 501h30v-504q-33 -24 -46.5 -43.5q-13.5 -19.5 -13.5 -39.5q0 -28 21 -40q21 -12 56 -12h44v-25zM88 705h30v-110l-30 0z" />
<glyph unicode="&#305;" horiz-adv-x="206" d="M88 504h30v-504l-30 0z" />
<glyph unicode="&#310;" horiz-adv-x="587" d="M98 700h32v-333h151l236 333h30v-12l-238 -334l250 -342v-12h-31l-246 337h-152v-337h-32zM295 -67h32v-15l-76 -158l-26 0z" />
<glyph unicode="&#311;" horiz-adv-x="501" d="M88 705h30v-434h119l180 233h26v-14l-178 -231l188 -244v-15h-27l-188 244h-120v-244h-30zM257 -67h29v-15l-70 -158l-24 0z" />
<glyph unicode="&#313;" horiz-adv-x="554" d="M99 700h32v-670h395v-30h-427zM224 913h36v-13l-126 -138l-36 0z" />
<glyph unicode="&#314;" horiz-adv-x="206" d="M88 705h30v-705h-30zM205 896h33v-12l-117 -128l-34 0z" />
<glyph unicode="&#315;" horiz-adv-x="553" d="M98 700h32v-670h395v-30h-427zM311 -67h32v-15l-76 -158l-26 0z" />
<glyph unicode="&#316;" horiz-adv-x="206" d="M88 705h30v-705h-30zM88 -67h29v-15l-70 -158l-24 0z" />
<glyph unicode="&#317;" horiz-adv-x="559" d="M98 700h32v-670h395v-30h-427zM499 700h32v-15l-76 -158l-26 0z" />
<glyph unicode="&#318;" horiz-adv-x="292" d="M88 705h30v-705h-30zM278 705h32v-15l-76 -158l-26 0z" />
<glyph unicode="&#321;" horiz-adv-x="597" d="M142 282l-95 -76h-15v26l110 88v380h32v-355l206 167h15v-26l-221 -180v-276h395v-30l-427 0z" />
<glyph unicode="&#322;" horiz-adv-x="372" d="M170 317l-152 -181h-18v22l170 202v345h30v-312l155 186h17v-21l-172 -207v-351l-30 0z" />
<glyph unicode="&#323;" horiz-adv-x="686" d="M98 700h30l428 -641v641h32v-700h-29l-429 640v-640h-32zM428 913h36v-13l-126 -138l-36 0z" />
<glyph unicode="&#324;" horiz-adv-x="566" d="M88 504h22l7 -85q16 19 36.5 36.5q20.5 17.5 45 31q24.5 13.5 52.5 21.5q28 8 60 8q36 0 67.5 -11.5q31.5 -11.5 55 -35q23.5 -23.5 36.5 -58.5q13 -35 13 -82v-329h-30v324q0 42 -11.5 73q-11.5 31 -31 51.5q-19.5 20.5 -46.5 30q-27 9.5 -57 9.5q-57 0 -105.5 -30.5q-48.5 -30.5 -83.5 -72.5l0 -385h-30zM356 730h33v-12l-117 -128l-34 0z" />
<glyph unicode="&#325;" horiz-adv-x="686" d="M98 700h30l428 -641v641h32v-700h-29l-429 640v-640h-32zM333 -67h32v-15l-76 -158l-26 0z" />
<glyph unicode="&#326;" horiz-adv-x="566" d="M88 504h22l7 -85q16 19 36.5 36.5q20.5 17.5 45 31q24.5 13.5 52.5 21.5q28 8 60 8q36 0 67.5 -11.5q31.5 -11.5 55 -35q23.5 -23.5 36.5 -58.5q13 -35 13 -82v-329h-30v324q0 42 -11.5 73q-11.5 31 -31 51.5q-19.5 20.5 -46.5 30q-27 9.5 -57 9.5q-57 0 -105.5 -30.5q-48.5 -30.5 -83.5 -72.5l0 -385h-30zM285 -67h29v-15l-70 -158l-24 0z" />
<glyph unicode="&#327;" horiz-adv-x="686" d="M98 700h30l428 -641v641h32v-700h-29l-429 640v-640h-32zM203 900v13h31l109 -125l112 125h30v-13l-125 -137l-33 0z" />
<glyph unicode="&#328;" horiz-adv-x="566" d="M88 504h22l7 -85q16 19 36.5 36.5q20.5 17.5 45 31q24.5 13.5 52.5 21.5q28 8 60 8q36 0 67.5 -11.5q31.5 -11.5 55 -35q23.5 -23.5 36.5 -58.5q13 -35 13 -82v-329h-30v324q0 42 -11.5 73q-11.5 31 -31 51.5q-19.5 20.5 -46.5 30q-27 9.5 -57 9.5q-57 0 -105.5 -30.5q-48.5 -30.5 -83.5 -72.5l0 -385h-30zM155 718v12h29l102 -117l104 117h28v-12l-116 -128l-31 0z" />
<glyph unicode="&#332;" horiz-adv-x="672" d="M336 15q106 0 166 58q60 58 60 160v234q0 102 -60 160q-60 58 -166 58q-106 0 -166 -58q-60 -58 -60 -160v-234q0 -102 60 -160q60 -58 166 -58zt0 0zM336 -15q-59 0 -106.5 16.5q-47.5 16.5 -81.5 48.5q-34 32 -52 78.5q-18 46.5 -18 105.5v232q0 59 18 105.5q18 46.5 52 78.5q34 32 81.5 48.5q47.5 16.5 106.5 16.5q59 0 106.5 -16.5q47.5 -16.5 81.5 -48.5q34 -32 52 -78.5q18 -46.5 18 -105.5v-232q0 -59 -18 -105.5q-18 -46.5 -52 -78.5q-34 -32 -81.5 -48.5q-47.5 -16.5 -106.5 -16.5zt0 0zM203 841h266v-27l-266 0z" />
<glyph unicode="&#333;" horiz-adv-x="529" d="M265 16q43 0 75 12.5q32 12.5 53 34q21 21.5 31 50.5q10 29 10 63v152q0 34 -10 63q-10 29 -31 50.5q-21 21.5 -53 34q-32 12.5 -75 12.5q-41 0 -73 -12q-32 -12 -53.5 -33.5q-21.5 -21.5 -32.5 -51q-11 -29.5 -11 -63.5v-152q0 -35 11 -64q11 -29 32.5 -50.5q21.5 -21.5 53.5 -33.5q32 -12 73 -12zt0 0zM265 -12q-50 0 -87.5 14.5q-37.5 14.5 -62.5 39.5q-25 25 -37.5 59q-12.5 34 -12.5 74v154q0 39 12.5 73.5q12.5 34.5 37.5 59.5q25 25 62.5 39.5q37.5 14.5 87.5 14.5q50 0 87.5 -14.5q37.5 -14.5 62 -39.5q24.5 -25 37 -59.5q12.5 -34.5 12.5 -73.5v-154q0 -40 -12.5 -74q-12.5 -34 -37 -59q-24.5 -25 -62 -39.5q-37.5 -14.5 -87.5 -14.5zt0 0zM141 663h248v-26l-248 0z" />
<glyph unicode="&#335;" horiz-adv-x="529" d="M265 16q43 0 75 12.5q32 12.5 53 34q21 21.5 31 50.5q10 29 10 63v152q0 34 -10 63q-10 29 -31 50.5q-21 21.5 -53 34q-32 12.5 -75 12.5q-41 0 -73 -12q-32 -12 -53.5 -33.5q-21.5 -21.5 -32.5 -51q-11 -29.5 -11 -63.5v-152q0 -35 11 -64q11 -29 32.5 -50.5q21.5 -21.5 53.5 -33.5q32 -12 73 -12zt0 0zM265 -12q-50 0 -87.5 14.5q-37.5 14.5 -62.5 39.5q-25 25 -37.5 59q-12.5 34 -12.5 74v154q0 39 12.5 73.5q12.5 34.5 37.5 59.5q25 25 62.5 39.5q37.5 14.5 87.5 14.5q50 0 87.5 -14.5q37.5 -14.5 62 -39.5q24.5 -25 37 -59.5q12.5 -34.5 12.5 -73.5v-154q0 -40 -12.5 -74q-12.5 -34 -37 -59q-24.5 -25 -62 -39.5q-37.5 -14.5 -87.5 -14.5zt0 0zM265 585q-66 0 -107 35.5q-41 35.5 -41 101.5v12h28v-11q0 -54 33 -83.5q33 -29.5 87 -29.5q54 0 87.5 29.5q33.5 29.5 33.5 83.5v11h28v-12q0 -66 -41.5 -101.5t-107.5 -35.5z" />
<glyph unicode="&#336;" horiz-adv-x="672" d="M336 15q106 0 166 58q60 58 60 160v234q0 102 -60 160q-60 58 -166 58q-106 0 -166 -58q-60 -58 -60 -160v-234q0 -102 60 -160q60 -58 166 -58zt0 0zM336 -15q-59 0 -106.5 16.5q-47.5 16.5 -81.5 48.5q-34 32 -52 78.5q-18 46.5 -18 105.5v232q0 59 18 105.5q18 46.5 52 78.5q34 32 81.5 48.5q47.5 16.5 106.5 16.5q59 0 106.5 -16.5q47.5 -16.5 81.5 -48.5q34 -32 52 -78.5q18 -46.5 18 -105.5v-232q0 -59 -18 -105.5q-18 -46.5 -52 -78.5q-34 -32 -81.5 -48.5q-47.5 -16.5 -106.5 -16.5zt0 0zM350 913h33v-13l-125 -137h-34zM530 913h33v-13l-125 -137l-34 0z" />
<glyph unicode="&#337;" horiz-adv-x="538" d="M265 16q43 0 75 12.5q32 12.5 53 34q21 21.5 31 50.5q10 29 10 63v152q0 34 -10 63q-10 29 -31 50.5q-21 21.5 -53 34q-32 12.5 -75 12.5q-41 0 -73 -12q-32 -12 -53.5 -33.5q-21.5 -21.5 -32.5 -51q-11 -29.5 -11 -63.5v-152q0 -35 11 -64q11 -29 32.5 -50.5q21.5 -21.5 53.5 -33.5q32 -12 73 -12zt0 0zM265 -12q-50 0 -87.5 14.5q-37.5 14.5 -62.5 39.5q-25 25 -37.5 59q-12.5 34 -12.5 74v154q0 39 12.5 73.5q12.5 34.5 37.5 59.5q25 25 62.5 39.5q37.5 14.5 87.5 14.5q50 0 87.5 -14.5q37.5 -14.5 62 -39.5q24.5 -25 37 -59.5q12.5 -34.5 12.5 -73.5v-154q0 -40 -12.5 -74q-12.5 -34 -37 -59q-24.5 -25 -62 -39.5q-37.5 -14.5 -87.5 -14.5zt0 0zM275 730h31v-12l-117 -128h-32zM443 730h30v-12l-116 -128l-32 0z" />
<glyph unicode="&#338;" horiz-adv-x="1038" d="M336 -15q-59 0 -106.5 16.5q-47.5 16.5 -81.5 48.5q-34 32 -52 78.5q-18 46.5 -18 105.5v232q0 59 18 105.5q18 46.5 52 78.5q34 32 81.5 48.5q47.5 16.5 106.5 16.5q79 0 137 -32.5q58 -32.5 90 -91.5l0 109h416v-30h-384v-302h336v-30h-336v-308h384v-30h-416v108q-32 -59 -90 -91q-58 -32 -137 -32zt0 0zM336 15q106 0 166.5 58q60.5 58 60.5 160v234q0 102 -60.5 160q-60.5 58 -166.5 58q-106 0 -166 -58q-60 -58 -60 -160v-234q0 -102 60 -160t166 -58z" />
<glyph unicode="&#339;" horiz-adv-x="896" d="M265 -12q-50 0 -87.5 14.5q-37.5 14.5 -62.5 39.5q-25 25 -37.5 59q-12.5 34 -12.5 74v154q0 39 12.5 73.5q12.5 34.5 37.5 59.5q25 25 62.5 39.5q37.5 14.5 87.5 14.5q77 0 122.5 -34q45.5 -34 61.5 -88q17 54 62.5 88q45.5 34 122.5 34q49 0 86 -14q37 -14 62 -39q25 -25 37.5 -59.5q12.5 -34.5 12.5 -74.5v-85h-368v-72q1 -69 45 -112.5q44 -43.5 125 -43.5q78 0 117 37.5q39 37.5 46 94.5l30 0q-6 -71 -54.5 -115.5q-48.5 -44.5 -138.5 -44.5q-77 0 -123 33.5q-46 33.5 -62 87.5q-16 -54 -61.5 -87.5q-45.5 -33.5 -122.5 -33.5zt0 0zM265 16q42 0 73.5 12q31.5 12 53 33.5q21.5 21.5 32 50.5q10.5 29 10.5 62v157q0 33 -10.5 61.5q-10.5 28.5 -32 49.5q-21.5 21 -53 33.5q-31.5 12.5 -73.5 12.5q-41 0 -73 -12q-32 -12 -53.5 -33.5q-21.5 -21.5 -32.5 -51q-11 -29.5 -11 -63.5v-152q0 -35 11 -64q11 -29 32.5 -50.5q21.5 -21.5 53.5 -33.5q32 -12 73 -12zt0 0zM802 271v58q0 34 -10.5 63q-10.5 29 -31.5 50.5q-21 21.5 -52.5 33.5q-31.5 12 -74.5 12q-82 0 -125.5 -45q-43.5 -45 -43.5 -114l0 -58z" />
<glyph unicode="&#340;" horiz-adv-x="636" d="M98 700h283q91 0 140 -54.5q49 -54.5 49 -148.5q0 -86 -41.5 -136.5q-41.5 -50.5 -113.5 -61.5l171 -287v-12h-30l-176 294h-250v-294h-32zM372 324q77 0 121 45q44 45 44 128q0 81 -42 127q-42 46 -118 46h-247v-346zM409 913h36v-13l-126 -138l-36 0z" />
<glyph unicode="&#341;" horiz-adv-x="364" d="M88 504h21l8 -85q17 19 39 36q22 17 48 30.5q26 13.5 55 21.5q29 8 61 8h6v-30h-6q-61 0 -112.5 -27q-51.5 -27 -89.5 -72l0 -386h-30zM280 730h33v-12l-117 -128l-34 0z" />
<glyph unicode="&#342;" horiz-adv-x="636" d="M98 700h283q91 0 140 -54.5q49 -54.5 49 -148.5q0 -86 -41.5 -136.5q-41.5 -50.5 -113.5 -61.5l171 -287v-12h-30l-176 294h-250v-294h-32zM372 324q77 0 121 45q44 45 44 128q0 81 -42 127q-42 46 -118 46h-247v-346zM321 -67h32v-15l-76 -158l-26 0z" />
<glyph unicode="&#343;" horiz-adv-x="364" d="M88 504h21l8 -85q17 19 39 36q22 17 48 30.5q26 13.5 55 21.5q29 8 61 8h6v-30h-6q-61 0 -112.5 -27q-51.5 -27 -89.5 -72l0 -386h-30zM88 -67h29v-15l-70 -158l-24 0z" />
<glyph unicode="&#344;" horiz-adv-x="636" d="M98 700h283q91 0 140 -54.5q49 -54.5 49 -148.5q0 -86 -41.5 -136.5q-41.5 -50.5 -113.5 -61.5l171 -287v-12h-30l-176 294h-250v-294h-32zM372 324q77 0 121 45q44 45 44 128q0 81 -42 127q-42 46 -118 46h-247v-346zM167 900v13h31l109 -125l112 125h30v-13l-125 -137l-33 0z" />
<glyph unicode="&#345;" horiz-adv-x="364" d="M88 504h21l8 -85q17 19 39 36q22 17 48 30.5q26 13.5 55 21.5q29 8 61 8h6v-30h-6q-61 0 -112.5 -27q-51.5 -27 -89.5 -72l0 -386h-30zM71 718v12h29l102 -117l104 117h28v-12l-116 -128l-31 0z" />
<glyph unicode="&#346;" horiz-adv-x="617" d="M319 -15q-50 0 -97.5 13.5q-47.5 13.5 -85 43q-37.5 29.5 -60.5 75q-23 45.5 -23 110.5l32 0q0 -58 21 -98q21 -40 55 -65.5q34 -25.5 75.5 -37q41.5 -11.5 83.5 -11.5q49 0 86 11.5q37 11.5 61.5 32q24.5 20.5 36.5 47.5q12 27 12 59q0 58 -38.5 92.5q-38.5 34.5 -118.5 64.5l-105 39q-47 18 -80.5 34.5q-33.5 16.5 -54.5 37q-21 20.5 -31 46q-10 25.5 -10 61.5q0 38 15 70q15 32 43.5 55.5q28.5 23.5 70.5 36.5q42 13 95 13q51 0 95.5 -13.5q44.5 -13.5 77.5 -42q33 -28.5 52 -73q19 -44.5 19 -107.5l-32 0q0 57 -18 96q-18 39 -47.5 63.5q-29.5 24.5 -67.5 35.5q-38 11 -79 11q-91 0 -141.5 -40.5q-50.5 -40.5 -50.5 -102.5q0 -29 8 -50.5q8 -21.5 25 -38q17 -16.5 43.5 -30.5q26.5 -14 63.5 -27l102 -38q44 -17 80.5 -34q36.5 -17 62.5 -39q26 -22 40 -50.5q14 -28.5 14 -68.5q0 -38 -14 -71q-14 -33 -42.5 -57.5q-28.5 -24.5 -72 -38.5q-43.5 -14 -101.5 -14zt0 0zM402 913h36v-13l-126 -138l-36 0z" />
<glyph unicode="&#347;" horiz-adv-x="528" d="M270 -12q-41 0 -79 10q-38 10 -67.5 31.5q-29.5 21.5 -47.5 55q-18 33.5 -18 81.5l30 0q0 -41 16.5 -69.5q16.5 -28.5 42.5 -46.5q26 -18 59 -26q33 -8 66 -8q77 0 117.5 32q40.5 32 40.5 80q0 44 -28.5 65q-28.5 21 -90.5 37l-108 29q-65 16 -95 43.5q-30 27.5 -30 81.5q0 28 12.5 52q12.5 24 36 42q23.5 18 58 28q34.5 10 78.5 10q41 0 76.5 -10.5q35.5 -10.5 61.5 -31.5q26 -21 40.5 -53.5q14.5 -32.5 14.5 -77.5l-30 0q0 38 -12.5 65.5q-12.5 27.5 -34.5 45q-22 17.5 -52.5 26q-30.5 8.5 -65.5 8.5q-75 0 -114 -29.5q-39 -29.5 -39 -73.5q0 -40 23 -62.5q23 -22.5 81 -36.5l108 -28q34 -9 60.5 -19.5q26.5 -10.5 44 -25q17.5 -14.5 26.5 -35q9 -20.5 9 -49.5q0 -61 -48 -101q-48 -40 -142 -40zt0 0zM342 730h33v-12l-117 -128l-34 0z" />
<glyph unicode="&#349;" horiz-adv-x="528" d="M270 -12q-41 0 -79 10q-38 10 -67.5 31.5q-29.5 21.5 -47.5 55q-18 33.5 -18 81.5l30 0q0 -41 16.5 -69.5q16.5 -28.5 42.5 -46.5q26 -18 59 -26q33 -8 66 -8q77 0 117.5 32q40.5 32 40.5 80q0 44 -28.5 65q-28.5 21 -90.5 37l-108 29q-65 16 -95 43.5q-30 27.5 -30 81.5q0 28 12.5 52q12.5 24 36 42q23.5 18 58 28q34.5 10 78.5 10q41 0 76.5 -10.5q35.5 -10.5 61.5 -31.5q26 -21 40.5 -53.5q14.5 -32.5 14.5 -77.5l-30 0q0 38 -12.5 65.5q-12.5 27.5 -34.5 45q-22 17.5 -52.5 26q-30.5 8.5 -65.5 8.5q-75 0 -114 -29.5q-39 -29.5 -39 -73.5q0 -40 23 -62.5q23 -22.5 81 -36.5l108 -28q34 -9 60.5 -19.5q26.5 -10.5 44 -25q17.5 -14.5 26.5 -35q9 -20.5 9 -49.5q0 -61 -48 -101q-48 -40 -142 -40zt0 0zM144 602l116 128h31l116 -128v-12h-28l-104 117l-102 -117l-29 0z" />
<glyph unicode="&#352;" horiz-adv-x="617" d="M319 -15q-50 0 -97.5 13.5q-47.5 13.5 -85 43q-37.5 29.5 -60.5 75q-23 45.5 -23 110.5l32 0q0 -58 21 -98q21 -40 55 -65.5q34 -25.5 75.5 -37q41.5 -11.5 83.5 -11.5q49 0 86 11.5q37 11.5 61.5 32q24.5 20.5 36.5 47.5q12 27 12 59q0 58 -38.5 92.5q-38.5 34.5 -118.5 64.5l-105 39q-47 18 -80.5 34.5q-33.5 16.5 -54.5 37q-21 20.5 -31 46q-10 25.5 -10 61.5q0 38 15 70q15 32 43.5 55.5q28.5 23.5 70.5 36.5q42 13 95 13q51 0 95.5 -13.5q44.5 -13.5 77.5 -42q33 -28.5 52 -73q19 -44.5 19 -107.5l-32 0q0 57 -18 96q-18 39 -47.5 63.5q-29.5 24.5 -67.5 35.5q-38 11 -79 11q-91 0 -141.5 -40.5q-50.5 -40.5 -50.5 -102.5q0 -29 8 -50.5q8 -21.5 25 -38q17 -16.5 43.5 -30.5q26.5 -14 63.5 -27l102 -38q44 -17 80.5 -34q36.5 -17 62.5 -39q26 -22 40 -50.5q14 -28.5 14 -68.5q0 -38 -14 -71q-14 -33 -42.5 -57.5q-28.5 -24.5 -72 -38.5q-43.5 -14 -101.5 -14zt0 0zM174 900v13h31l109 -125l112 125h30v-13l-125 -137l-33 0z" />
<glyph unicode="&#353;" horiz-adv-x="528" d="M270 -12q-41 0 -79 10q-38 10 -67.5 31.5q-29.5 21.5 -47.5 55q-18 33.5 -18 81.5l30 0q0 -41 16.5 -69.5q16.5 -28.5 42.5 -46.5q26 -18 59 -26q33 -8 66 -8q77 0 117.5 32q40.5 32 40.5 80q0 44 -28.5 65q-28.5 21 -90.5 37l-108 29q-65 16 -95 43.5q-30 27.5 -30 81.5q0 28 12.5 52q12.5 24 36 42q23.5 18 58 28q34.5 10 78.5 10q41 0 76.5 -10.5q35.5 -10.5 61.5 -31.5q26 -21 40.5 -53.5q14.5 -32.5 14.5 -77.5l-30 0q0 38 -12.5 65.5q-12.5 27.5 -34.5 45q-22 17.5 -52.5 26q-30.5 8.5 -65.5 8.5q-75 0 -114 -29.5q-39 -29.5 -39 -73.5q0 -40 23 -62.5q23 -22.5 81 -36.5l108 -28q34 -9 60.5 -19.5q26.5 -10.5 44 -25q17.5 -14.5 26.5 -35q9 -20.5 9 -49.5q0 -61 -48 -101q-48 -40 -142 -40zt0 0zM136 718v12h29l102 -117l104 117h28v-12l-116 -128l-31 0z" />
<glyph unicode="&#356;" horiz-adv-x="545" d="M257 670h-229v30h489v-30h-228v-670h-32zM132 900v13h31l109 -125l112 125h30v-13l-125 -137l-33 0z" />
<glyph unicode="&#357;" horiz-adv-x="444" d="M255 0q-39 0 -65 12q-26 12 -41.5 31q-15.5 19 -22.5 43.5q-7 24.5 -7 48.5v342h-91v27h91v105h30v-105h145v-27h-145v-341q0 -53 27.5 -80q27.5 -27 78.5 -27h39v-29h-39zM428 705h32v-15l-76 -158l-26 0z" />
<glyph unicode="&#362;" horiz-adv-x="666" d="M333 -15q-54 0 -99 16q-45 16 -77.5 47.5q-32.5 31.5 -50.5 78q-18 46.5 -18 106.5v467h32v-467q0 -104 58 -161q58 -57 155 -57q97 0 155 56.5q58 56.5 58 161.5v467h32v-467q0 -60 -18 -106q-18 -46 -50.5 -77.5q-32.5 -31.5 -77.5 -48q-45 -16.5 -99 -16.5zt0 0zM200 841h266v-27l-266 0z" />
<glyph unicode="&#363;" horiz-adv-x="566" d="M255 -12q-36 0 -67.5 11.5q-31.5 11.5 -55 35q-23.5 23.5 -36.5 58.5q-13 35 -13 82v329h30v-324q0 -42 11.5 -73q11.5 -31 31 -51.5q19.5 -20.5 46 -30q26.5 -9.5 57.5 -9.5q57 0 105.5 30.5q48.5 30.5 83.5 72.5l0 385h30v-504h-22l-7 85q-16 -19 -36.5 -36.5q-20.5 -17.5 -45.5 -31q-25 -13.5 -53 -21.5q-28 -8 -59 -8zt0 0zM156 663h248v-26l-248 0z" />
<glyph unicode="&#366;" horiz-adv-x="666" d="M333 -15q-54 0 -99 16q-45 16 -77.5 47.5q-32.5 31.5 -50.5 78q-18 46.5 -18 106.5v467h32v-467q0 -104 58 -161q58 -57 155 -57q97 0 155 56.5q58 56.5 58 161.5v467h32v-467q0 -60 -18 -106q-18 -46 -50.5 -77.5q-32.5 -31.5 -77.5 -48q-45 -16.5 -99 -16.5zt0 0zM230 847q0 20 8 38.5q8 18.5 22 31.5q14 13 33 21.5q19 8.5 40 8.5q22 0 41 -8.5q19 -8.5 33 -21.5q14 -13 22 -31.5q8 -18.5 8 -38.5q0 -21 -8 -39q-8 -18 -22 -31.5q-14 -13.5 -33 -21.5q-19 -8 -41 -8q-21 0 -40 8q-19 8 -33 21.5q-14 13.5 -22 31.5q-8 18 -8 39zt0 0zM258 847q0 -30 22 -51.5q22 -21.5 53 -21.5q31 0 53.5 21.5q22.5 21.5 22.5 51.5q0 30 -22.5 51.5q-22.5 21.5 -53.5 21.5q-31 0 -53 -21.5t-22 -51.5z" />
<glyph unicode="&#367;" horiz-adv-x="566" d="M255 -12q-36 0 -67.5 11.5q-31.5 11.5 -55 35q-23.5 23.5 -36.5 58.5q-13 35 -13 82v329h30v-324q0 -42 11.5 -73q11.5 -31 31 -51.5q19.5 -20.5 46 -30q26.5 -9.5 57.5 -9.5q57 0 105.5 30.5q48.5 30.5 83.5 72.5l0 385h30v-504h-22l-7 85q-16 -19 -36.5 -36.5q-20.5 -17.5 -45.5 -31q-25 -13.5 -53 -21.5q-28 -8 -59 -8zt0 0zM185 668q0 19 7.5 36q7.5 17 20.5 29.5q13 12.5 30.5 20q17.5 7.5 37.5 7.5q20 0 38 -7.5q18 -7.5 31 -20q13 -12.5 20.5 -29.5q7.5 -17 7.5 -36q0 -19 -7.5 -36q-7.5 -17 -20.5 -29.5q-13 -12.5 -31 -20q-18 -7.5 -38 -7.5q-20 0 -37.5 7.5q-17.5 7.5 -30.5 20q-13 12.5 -20.5 29.5q-7.5 17 -7.5 36zt0 0zM211 668q0 -28 20.5 -48q20.5 -20 49.5 -20q29 0 50 20q21 20 21 48q0 28 -21 48q-21 20 -50 20q-29 0 -49.5 -20t-20.5 -48z" />
<glyph unicode="&#368;" horiz-adv-x="666" d="M333 -15q-54 0 -99 16q-45 16 -77.5 47.5q-32.5 31.5 -50.5 78q-18 46.5 -18 106.5v467h32v-467q0 -104 58 -161q58 -57 155 -57q97 0 155 56.5q58 56.5 58 161.5v467h32v-467q0 -60 -18 -106q-18 -46 -50.5 -77.5q-32.5 -31.5 -77.5 -48q-45 -16.5 -99 -16.5zt0 0zM330 913h33v-13l-125 -137h-34zM510 913h33v-13l-125 -137l-34 0z" />
<glyph unicode="&#369;" horiz-adv-x="566" d="M255 -12q-36 0 -67.5 11.5q-31.5 11.5 -55 35q-23.5 23.5 -36.5 58.5q-13 35 -13 82v329h30v-324q0 -42 11.5 -73q11.5 -31 31 -51.5q19.5 -20.5 46 -30q26.5 -9.5 57.5 -9.5q57 0 105.5 30.5q48.5 30.5 83.5 72.5l0 385h30v-504h-22l-7 85q-16 -19 -36.5 -36.5q-20.5 -17.5 -45.5 -31q-25 -13.5 -53 -21.5q-28 -8 -59 -8zt0 0zM279 730h31v-12l-117 -128h-32zM447 730h30v-12l-116 -128l-32 0z" />
<glyph unicode="&#370;" horiz-adv-x="666" d="M445 -160q-45 0 -70.5 19.5q-25.5 19.5 -25.5 53.5q0 17 10 36.5q10 19.5 35 41.5q-29 -6 -61 -6q-54 0 -99 16q-45 16 -77.5 47.5q-32.5 31.5 -50.5 78q-18 46.5 -18 106.5v467h32v-467q0 -104 58 -161q58 -57 155 -57q97 0 155 56.5q58 56.5 58 161.5v467h32v-467q0 -42 -8 -75.5q-8 -33.5 -25 -61.5q-17 -28 -44 -51.5q-27 -23.5 -65 -46.5q-34 -20 -47 -41.5q-13 -21.5 -13 -38.5q0 -29 21 -41q21 -12 56 -12h44v-25l-52 0z" />
<glyph unicode="&#371;" horiz-adv-x="566" d="M486 -160q-45 0 -70.5 19q-25.5 19 -25.5 53q0 21 14.5 43.5q14.5 22.5 51.5 47.5l-7 82q-16 -19 -36.5 -36.5q-20.5 -17.5 -45.5 -31q-25 -13.5 -53 -21.5q-28 -8 -59 -8q-36 0 -67.5 11.5q-31.5 11.5 -55 35q-23.5 23.5 -36.5 58.5q-13 35 -13 82v329h30v-324q0 -42 11.5 -73q11.5 -31 31 -51.5q19.5 -20.5 46 -30q26.5 -9.5 57.5 -9.5q57 0 105.5 30.5q48.5 30.5 83.5 72.5l0 385h30v-504q-33 -24 -46.5 -43.5q-13.5 -19.5 -13.5 -39.5q0 -28 21 -40q21 -12 56 -12h44v-25l-53 0z" />
<glyph unicode="&#376;" horiz-adv-x="600" d="M284 278l-266 410v12h31l251 -391l252 391h29v-12l-265 -409v-279h-32zM191 889h32v-118h-32zM378 889h32v-118l-32 0z" />
<glyph unicode="&#377;" horiz-adv-x="563" d="M48 29l421 641h-408v30h445v-29l-421 -641h431v-30h-468zM365 913h36v-13l-126 -138l-36 0z" />
<glyph unicode="&#378;" horiz-adv-x="506" d="M58 27l345 450h-329v27h365v-27l-345 -450h348v-27h-384zM319 730h33v-12l-117 -128l-34 0z" />
<glyph unicode="&#379;" horiz-adv-x="563" d="M48 29l421 641h-408v30h445v-29l-421 -641h431v-30h-468zM258 892h32v-118l-32 0z" />
<glyph unicode="&#380;" horiz-adv-x="506" d="M58 27l345 450h-329v27h365v-27l-345 -450h348v-27h-384zM237 710h30v-110l-30 0z" />
<glyph unicode="&#381;" horiz-adv-x="563" d="M48 29l421 641h-408v30h445v-29l-421 -641h431v-30h-468zM141 900v13h31l109 -125l112 125h30v-13l-125 -137l-33 0z" />
<glyph unicode="&#382;" horiz-adv-x="506" d="M58 27l345 450h-329v27h365v-27l-345 -450h348v-27h-384zM118 718v12h29l102 -117l104 117h28v-12l-116 -128l-31 0z" />
<glyph unicode="&#402;" horiz-adv-x="377" d="M162 504l5 60q5 69 41.5 106q36.5 37 107.5 37q11 0 21 -1q10 -1 12 -1l0 -28q-2 0 -11 1q-9 1 -20 1q-110 0 -121 -115l-5 -60h144v-27h-146l-40 -505q-5 -68 -40.5 -106q-35.5 -38 -104.5 -38q-11 0 -21 1q-10 1 -12 1l0 28q5 -1 9 -1q5 -1 18 -1q112 0 121 117l40 504h-89l0 27z" />
<glyph unicode="&#537;" horiz-adv-x="528" d="M270 -12q-41 0 -79 10q-38 10 -67.5 31.5q-29.5 21.5 -47.5 55q-18 33.5 -18 81.5l30 0q0 -41 16.5 -69.5q16.5 -28.5 42.5 -46.5q26 -18 59 -26q33 -8 66 -8q77 0 117.5 32q40.5 32 40.5 80q0 44 -28.5 65q-28.5 21 -90.5 37l-108 29q-65 16 -95 43.5q-30 27.5 -30 81.5q0 28 12.5 52q12.5 24 36 42q23.5 18 58 28q34.5 10 78.5 10q41 0 76.5 -10.5q35.5 -10.5 61.5 -31.5q26 -21 40.5 -53.5q14.5 -32.5 14.5 -77.5l-30 0q0 38 -12.5 65.5q-12.5 27.5 -34.5 45q-22 17.5 -52.5 26q-30.5 8.5 -65.5 8.5q-75 0 -114 -29.5q-39 -29.5 -39 -73.5q0 -40 23 -62.5q23 -22.5 81 -36.5l108 -28q34 -9 60.5 -19.5q26.5 -10.5 44 -25q17.5 -14.5 26.5 -35q9 -20.5 9 -49.5q0 -61 -48 -101q-48 -40 -142 -40zt0 0zM264 -67h29v-15l-70 -158l-24 0z" />
<glyph unicode="&#710;" horiz-adv-x="400" d="M68 602l116 128h31l116 -128v-12h-28l-104 117l-102 -117l-29 0z" />
<glyph unicode="&#711;" horiz-adv-x="400" d="M68 718v12h29l102 -117l104 117h28v-12l-116 -128l-31 0z" />
<glyph unicode="&#728;" horiz-adv-x="396" d="M198 571q-66 0 -107 35.5q-41 35.5 -41 101.5v12h28v-11q0 -54 33 -83.5q33 -29.5 87 -29.5q54 0 87.5 29.5q33.5 29.5 33.5 83.5v11h28v-12q0 -66 -41.5 -101.5t-107.5 -35.5z" />
<glyph unicode="&#729;" horiz-adv-x="166" d="M68 710h30v-110l-30 0z" />
<glyph unicode="&#730;" horiz-adv-x="336" d="M72 668q0 19 7.5 36q7.5 17 20.5 29.5q13 12.5 30.5 20q17.5 7.5 37.5 7.5q20 0 38 -7.5q18 -7.5 31 -20q13 -12.5 20.5 -29.5q7.5 -17 7.5 -36q0 -19 -7.5 -36q-7.5 -17 -20.5 -29.5q-13 -12.5 -31 -20q-18 -7.5 -38 -7.5q-20 0 -37.5 7.5q-17.5 7.5 -30.5 20q-13 12.5 -20.5 29.5q-7.5 17 -7.5 36zt0 0zM98 668q0 -28 20.5 -48q20.5 -20 49.5 -20q29 0 50 20q21 20 21 48q0 28 -21 48q-21 20 -50 20q-29 0 -49.5 -20t-20.5 -48z" />
<glyph unicode="&#731;" horiz-adv-x="268" d="M153 -160q-45 0 -70.5 19.5q-25.5 19.5 -25.5 53.5q0 18 12.5 40q12.5 22 43.5 47l32 0q-33 -24 -47 -45q-14 -21 -14 -38q0 -29 21 -40.5q21 -11.5 56 -11.5h44v-25l-52 0z" />
<glyph unicode="&#732;" horiz-adv-x="490" d="M80 638q18 23 30.5 38.5q12.5 15.5 23 25.5q10.5 10 21 14q10.5 4 23.5 4q16 0 30 -8q14 -8 31 -21l26 -19q17 -12 26 -18q9 -6 22 -6q8 0 15 3.5q7 3.5 15 11.5q8 8 19 21.5q11 13.5 27 33.5l21 -17q-17 -23 -30 -39q-13 -16 -24 -25.5q-11 -9.5 -21.5 -13.5q-10.5 -4 -23.5 -4q-17 0 -29.5 7.5q-12.5 7.5 -29.5 20.5l-27 20q-17 13 -26.5 18.5q-9.5 5.5 -20.5 5.5q-9 0 -16 -3.5q-7 -3.5 -15 -11.5q-8 -8 -19 -21.5q-11 -13.5 -27 -33.5z" />
<glyph unicode="&#733;" horiz-adv-x="448" d="M184 730h31v-12l-117 -128h-32zM352 730h30v-12l-116 -128l-32 0z" />
<glyph unicode="&#937;" horiz-adv-x="713" d="M83 30h160q-70 25 -107.5 81.5q-37.5 56.5 -37.5 141.5v213q0 59 18 105.5q18 46.5 52 78.5q34 32 81.5 48.5q47.5 16.5 106.5 16.5q59 0 106.5 -16.5q47.5 -16.5 81.5 -48.5q34 -32 52 -78.5q18 -46.5 18 -105.5v-213q0 -85 -37.5 -141.5q-37.5 -56.5 -106.5 -81.5l160 0v-30h-224v32q85 13 131 71q46 58 46 149v215q0 102 -60.5 160q-60.5 58 -166.5 58q-106 0 -166 -58q-60 -58 -60 -160v-215q0 -91 46 -149q46 -58 130 -71l0 -32l-223 0z" />
<glyph unicode="&#960;" horiz-adv-x="638" d="M143 477h-105v27h562v-27h-105v-477h-30v477h-292v-477l-30 0z" />
<glyph unicode="&#1025;" horiz-adv-x="573" d="M98 700h416v-30h-384v-302h336v-30h-336v-308h384v-30h-416zM193 886h32v-118h-32zM380 886h32v-118l-32 0z" />
<glyph unicode="&#1026;" horiz-adv-x="731" d="M210 670h-182v30h476v-30h-262v-300q54 17 100.5 25q46.5 8 99.5 8q112 0 174 -54.5q62 -54.5 62 -146.5q0 -92 -49 -147q-49 -55 -145 -55h-54v30h54q81 0 121.5 47q40.5 47 40.5 125q0 40 -15.5 72q-15.5 32 -43 54q-27.5 22 -65.5 33.5q-38 11.5 -83 11.5q-28 0 -52 -2q-24 -2 -47.5 -6q-23.5 -4 -47 -10.5q-23.5 -6.5 -50.5 -15.5l0 -339l-32 0z" />
<glyph unicode="&#1027;" horiz-adv-x="559" d="M386 913h36v-13l-126 -138h-36zM98 700h413v-30h-381v-670l-32 0z" />
</font>
</defs>
</svg>
